<?xml version="1.0" encoding="utf-8"?>
<!-- Generator: Adobe Illustrator 16.0.0, SVG Export Plug-In . SVG Version: 6.00 Build 0)  -->
<!DOCTYPE svg PUBLIC "-//W3C//DTD SVG 1.1//EN" "http://www.w3.org/Graphics/SVG/1.1/DTD/svg11.dtd">
<svg version="1.1" id="Layer_1" xmlns="http://www.w3.org/2000/svg" xmlns:xlink="http://www.w3.org/1999/xlink" x="0px" y="0px"
	 width="353px" height="326px" viewBox="0 -153.757 353 326" enable-background="new 0 -153.757 353 326" xml:space="preserve">
<g id="Layer_2">
</g>
<g>
	<path fill-rule="evenodd" clip-rule="evenodd" fill="#FFFFFF" d="M184.77-117.855c2.829,0.288,5.661,0.552,8.488,0.869
		c12.845,1.438,25.062,5.075,36.722,10.594c17.671,8.365,32.657,20.24,45.326,35.054c18.744,21.919,30.448,47.28,36.6,75.339
		c2.367,10.79,3.301,21.709,3.368,32.733c0.078,13.197,0.252,26.393,0.345,39.593c0.011,0.985,0.294,1.684,0.98,2.401
		c2.71,2.832,5.6,5.545,7.951,8.654c8.994,11.888,8.011,27.967-2.212,39.234c-4.569,5.034-9.933,8.864-16.548,10.726
		c-1.142,0.319-1.538,0.947-1.623,2.047c-1.416,18.042-16.264,29.932-28.161,32.691c-11.269,2.614-21.571,0.14-30.561-7.373
		c-6.792-5.677-11.175-12.829-13.451-21.33c-0.141-0.529-0.15-1.104-0.15-1.66c-0.008-24.102-0.109-48.207,0.119-72.307
		c0.031-3.097,1.447-6.338,2.819-9.229c5.15-10.851,13.545-18.183,25.238-21.085c12.297-3.052,22.987,0.653,32.201,9.063
		c4.227,3.86,7.533,8.396,9.865,13.635c0.137,0.314,0.324,0.607,0.687,1.281c0.083-0.771,0.169-1.178,0.164-1.582
		c-0.15-10.75,0.135-21.528-0.556-32.243c-2.069-32.225-11.968-61.755-31.819-87.522c-14.492-18.808-32.643-32.829-55.241-40.733
		c-14.04-4.909-28.487-6.481-43.286-5.5c-25.309,1.677-47.01,11.726-65.842,28.357c-17.282,15.264-29.52,34.038-37.874,55.419
		c-4.866,12.456-8.149,25.354-9.694,38.62c-0.77,6.608-0.829,13.314-0.949,19.981c-0.168,9.118-0.092,18.242-0.11,27.366
		c-0.003,0.575,0.058,1.151,0.395,1.764c0.164-0.443,0.344-0.88,0.493-1.325C63.275,51.181,72.969,41.884,87.966,38.6
		c7.696-1.685,15.107-0.133,21.958,3.659c9.349,5.178,15.908,12.808,18.872,23.14c0.864,3.021,0.854,6.348,0.887,9.54
		c0.182,15.846,0.319,31.693,0.312,47.541c0,6.974-0.221,13.96-0.641,20.921c-0.249,4.079-2.225,7.697-4.349,11.117
		c-6.172,9.953-14.951,16.18-26.549,18.283c-0.787,0.143-1.574,0.293-2.361,0.441c-1.632,0-3.261,0-4.892,0
		c-0.982-0.197-1.96-0.423-2.947-0.589c-15.374-2.552-28.847-16.496-30.71-31.968c-0.255-2.135-1.083-3.214-3.077-3.896
		c-6.604-2.271-12.174-6.112-16.419-11.693c-6.075-7.99-8.699-16.88-6.113-26.808c1.815-6.974,5.728-12.765,11.031-17.608
		c0.774-0.708,1.082-1.474,1.091-2.523c0.101-11.263,0.188-22.525,0.394-33.785c0.226-12.265,0.603-24.494,2.961-36.625
		c4.001-20.617,11.115-39.996,22.05-57.931c16.049-26.324,37.549-46.531,66.216-58.593c9.93-4.179,20.252-6.979,30.975-8.195
		c2.876-0.327,5.758-0.591,8.639-0.884C178.452-117.855,181.61-117.855,184.77-117.855z M69.858,105.463
		c0.092,0,0.188,0,0.283,0.002c0,8.711-0.075,17.422,0.034,26.131c0.047,3.807-0.054,7.73,0.799,11.393
		c3.74,16.084,22.637,21.75,35.373,13.998c4.178-2.538,7.111-6.138,9.284-10.477c1.074-2.137,1.592-4.266,1.577-6.686
		c-0.07-10.545,0.029-21.092,0.034-31.636c0.008-11.004,0.023-22.005-0.065-33.009c-0.031-3.858-0.179-7.762-1.947-11.33
		c-5.872-11.869-18.75-15.496-30.287-11.497c-8.402,2.915-14.375,11.121-14.525,19.189C70.208,82.849,70.042,94.156,69.858,105.463z
		 M291.206,105.642c0-11.515-0.042-23.026,0.033-34.544c0.021-2.352-0.409-4.46-1.46-6.571
		c-5.845-11.79-16.114-15.332-27.891-13.019c-9.284,1.822-17.475,9.85-17.475,22.739c0.003,20.887-0.049,41.776,0.061,62.66
		c0.018,2.851,0.425,5.851,1.387,8.515c3.393,9.39,10.644,14.151,20.268,14.849c9.95,0.719,17.798-3.353,22.906-12.168
		c1.585-2.732,2.277-5.596,2.233-8.835C291.107,128.061,291.206,116.85,291.206,105.642z M57.132,86.789
		c-7.347,0.469-13.665,10.459-13.321,20.428c0.327,9.356,7.686,16.268,13.289,17.103C57.419,111.786,57.404,99.301,57.132,86.789z
		 M304.87,124.41c0.573-0.101,0.895-0.088,1.149-0.213c2.898-1.413,5.57-3.122,7.74-5.572c3.273-3.696,3.75-8.162,3.95-12.816
		c0.267-6.352-1.562-11.725-6.59-15.817c-1.805-1.468-3.82-2.53-6.25-3.293C304.87,99.348,304.87,111.767,304.87,124.41z"/>
</g>
</svg>
