<?xml version="1.0" encoding="utf-8"?>
<!-- Generator: Adobe Illustrator 16.0.0, SVG Export Plug-In . SVG Version: 6.00 Build 0)  -->
<!DOCTYPE svg PUBLIC "-//W3C//DTD SVG 1.1//EN" "http://www.w3.org/Graphics/SVG/1.1/DTD/svg11.dtd">
<svg version="1.1" xmlns="http://www.w3.org/2000/svg" xmlns:xlink="http://www.w3.org/1999/xlink" x="0px" y="0px" width="353px"
	 height="326px" viewBox="0 0 353 326" enable-background="new 0 0 353 326" xml:space="preserve">
<g id="Layer_2_1_" display="none">
	<rect display="inline" fill-rule="evenodd" clip-rule="evenodd" fill="#231F20" width="353" height="326"/>
</g>
<g id="Layer_1">
	<g id="Layer_2">
	</g>
	<g>
		<path fill-rule="evenodd" clip-rule="evenodd" fill="#010101" d="M1125.066,579.268c12.77,0.029,28.669,2.369,43.78,8.705
			c28.288,11.861,46.095,32.898,53.523,62.529c5.233,20.877,5.052,41.893-1.13,62.557c-9.135,30.533-29.22,50.768-59.265,61.124
			c-15.552,5.361-31.655,6.891-47.999,6.093c-13.904-0.679-27.455-3.224-40.322-8.701c-28.14-11.979-45.836-33.023-53.159-62.569
			c-5.381-21.708-5.025-43.509,1.977-64.835c9.794-29.834,30.212-49.246,59.868-59.076
			C1095.05,580.881,1108.18,579.256,1125.066,579.268z M1119.173,754.439c11.175,0,19.783-1.048,27.641-3.281
			c22.825-6.488,38.411-20.79,45.622-43.489c5.866-18.467,5.767-37.208,0.055-55.707c-5.844-18.926-17.967-32.507-36.298-40.299
			c-8.605-3.658-17.656-5.448-26.974-6.103c-11.264-0.789-22.387-0.024-33.243,3.102c-23.067,6.643-38.687,21.256-45.746,44.301
			c-5.649,18.439-5.472,37.096,0.458,55.46c6.267,19.405,19.086,32.914,38.142,40.37
			C1099.316,752.896,1110.273,754.349,1119.173,754.439z"/>
		<path fill-rule="evenodd" clip-rule="evenodd" fill="#010101" d="M763.435,584.158c0.483,1.113,0.411,2.168,0.456,3.191
			c0.31,7.03,0.564,14.063,0.896,21.092c0.054,1.121-0.173,1.683-1.402,1.533c-0.552-0.068-1.118-0.012-1.678-0.012
			c-40.638,0-81.274-0.004-121.912,0.006c-3.41,0.001-2.858-0.396-2.862,2.953c-0.02,15.919-0.009,31.838-0.009,47.757
			c0,0.24,0,0.479,0,0.72c0.003,2.526-0.192,2.319,2.335,2.319c33.117,0.001,66.235,0.001,99.353,0.001c0.48,0,0.96-0.002,1.44,0
			c2.25,0.012,2.055-0.21,2.056,2.059c0.003,7.12,0.008,14.239-0.002,21.358c-0.004,2.535,0.265,2.247-2.354,2.248
			c-32.558,0.005-65.115,0.003-97.674,0.003c-0.959,0-1.919,0.007-2.879-0.001c-2.604-0.021-2.272,0.018-2.272,2.394
			c-0.003,18.558-0.002,37.117-0.001,55.676c0,0.479,0.01,0.96,0.006,1.439c-0.005,0.603,0.328,0.851,0.889,0.855
			c0.721,0.008,1.439,0.008,2.16,0.008c42.236,0,84.474-0.003,126.711,0.007c2.986,0.001,2.771-0.478,2.626,2.623
			c-0.323,6.869-0.69,13.736-1.038,20.604c-0.13,2.566-0.126,2.57-2.703,2.57c-43.437,0.001-86.874,0.001-130.311,0.001
			c-8.159,0-16.318,0.004-24.479-0.003c-1.991-0.002-1.992-0.02-2.027-1.907c-0.008-0.399-0.002-0.8-0.002-1.199
			c0-61.756-0.002-123.512,0.006-185.268c0-3.625-0.351-3.019,3.061-3.019c49.676-0.015,99.353-0.01,149.029-0.01
			C761.725,584.158,762.599,584.158,763.435,584.158z"/>
		<path fill-rule="evenodd" clip-rule="evenodd" fill="#020202" d="M798.302,775.563c0.097-1.023,0.661-1.405,1.056-1.878
			c26.424-31.701,52.856-63.396,79.287-95.091c0.103-0.123,0.206-0.245,0.307-0.369c1.6-1.983,1.558-1.41,0.017-3.272
			c-8.059-9.733-16.149-19.44-24.226-29.158c-16.563-19.93-33.124-39.859-49.677-59.797c-0.293-0.353-0.749-0.631-0.746-1.24
			c0.505-0.46,1.159-0.289,1.75-0.297c10.075-0.11,20.151-0.18,30.226-0.33c1.4-0.021,2.324,0.354,3.237,1.475
			c24.189,29.707,48.419,59.379,72.643,89.058c0.253,0.31,0.47,0.656,0.757,0.929c0.688,0.655,0.539,1.235-0.073,1.832
			c-0.228,0.222-0.408,0.491-0.611,0.738c-26.082,31.774-52.174,63.541-78.215,95.35c-1.229,1.5-2.444,2.126-4.415,2.103
			c-9.599-0.112-19.198-0.05-28.798-0.05C800.03,775.564,799.241,775.563,798.302,775.563z"/>
		<path fill-rule="evenodd" clip-rule="evenodd" fill="#020202" d="M932.033,693.505c22.547,27.391,44.87,54.51,67.547,82.059
			c-1.138,0-1.739,0.001-2.341,0.001c-10.313,0-20.626-0.02-30.938,0.025c-1.23,0.005-2.04-0.331-2.837-1.313
			c-16.066-19.797-32.172-39.563-48.266-59.336c-0.247-0.304-0.452-0.641-0.741-1.053
			C920.26,707.159,926.043,700.452,932.033,693.505z"/>
		<path fill-rule="evenodd" clip-rule="evenodd" fill="#020202" d="M993.707,584.64c-20.466,24.737-40.931,49.476-61.635,74.502
			c-5.81-6.695-11.511-13.318-17.266-19.991c4.438-5.418,8.79-10.736,13.146-16.051c10.09-12.309,20.199-24.604,30.248-36.945
			c1.143-1.403,2.288-2.068,4.189-2.049c10.316,0.108,20.635,0.052,30.952,0.052C993.464,584.318,993.585,584.479,993.707,584.64z"
			/>
		<path fill-rule="evenodd" clip-rule="evenodd" fill="#17E5EB" d="M157.021,794.912c-11.795-0.007-21.228-9.397-21.23-21.137
			c-0.003-11.651,9.554-21.146,21.28-21.142c11.697,0.005,21.271,9.551,21.251,21.19
			C178.302,785.525,168.813,794.918,157.021,794.912z"/>
		<path fill-rule="evenodd" clip-rule="evenodd" fill="#1BD5F1" d="M318.427,698.354c-11.708,0.012-21.258-9.466-21.308-21.149
			c-0.05-11.635,9.506-21.115,21.288-21.122c11.805-0.007,21.284,9.394,21.276,21.1
			C339.676,688.869,330.165,698.343,318.427,698.354z"/>
		<path fill-rule="evenodd" clip-rule="evenodd" fill="#12F8E4" d="M157.045,601.474c-10.555,0.348-21.188-8.34-21.243-21.079
			c-0.052-11.666,9.529-21.17,21.241-21.165c11.711,0.005,21.335,9.505,21.258,21.165
			C178.215,593.272,167.49,601.834,157.045,601.474z"/>
		<path fill-rule="evenodd" clip-rule="evenodd" fill="#18E0ED" d="M318.466,601.473c-10.258,0.403-21.264-7.932-21.292-21.025
			c-0.026-12.463,9.998-21.168,21.19-21.212c11.714-0.046,21.378,9.485,21.303,21.107
			C339.581,593.572,328.587,601.816,318.466,601.473z"/>
		<path fill-rule="evenodd" clip-rule="evenodd" fill="#1ECBF5" d="M318.231,794.911c-10.12,0.175-21.148-7.927-21.048-21.295
			c0.096-12.722,10.527-21.073,21.417-20.988c11.669,0.092,21.168,9.692,21.083,21.356
			C339.6,785.663,330.033,794.994,318.231,794.911z"/>
		<path fill-rule="evenodd" clip-rule="evenodd" fill="#19DDEE" d="M216.719,725.712c-0.355-11.613,9.741-21.204,21.122-21.21
			c11.197-0.006,21.305,9.125,21.285,21.113c-0.02,11.73-9.433,21.161-21.188,21.199
			C225.585,746.854,216.375,736.517,216.719,725.712z"/>
		<path fill-rule="evenodd" clip-rule="evenodd" fill="#20C3F8" d="M420.576,725.369c0.371,11.027-8.939,21.005-19.994,21.428
			c-12.09,0.463-22.01-8.523-22.498-20.116c-0.498-11.809,8.708-21.484,19.984-22.138
			C409.921,703.857,420.392,713.093,420.576,725.369z"/>
		<path fill-rule="evenodd" clip-rule="evenodd" fill="#1DCEF4" d="M420.595,629.178c0.023,11.614-9.591,21.152-21.308,21.142
			c-11.708-0.012-21.191-9.506-21.197-21.222c-0.007-11.631,9.372-20.829,21.034-21.104
			C409.032,607.759,420.454,615.633,420.595,629.178z"/>
		<path fill-rule="evenodd" clip-rule="evenodd" fill="#1FC6F7" d="M479.297,601.471c-10.894,0.307-21.188-9.146-21.04-21.266
			c0.143-11.643,9.638-21.09,21.417-20.961c12.711,0.139,21.13,10.764,21.048,21.337
			C500.633,592.112,490.654,601.94,479.297,601.471z"/>
		<path fill-rule="evenodd" clip-rule="evenodd" fill="#16E8EA" d="M216.719,629.157c-0.294-11.835,10.031-21.178,21.154-21.187
			c10.745-0.01,21.263,8.771,21.24,21.15c-0.022,11.713-9.493,21.262-21.209,21.18C224.89,650.21,216.378,639.5,216.719,629.157z"/>
		<path fill-rule="evenodd" clip-rule="evenodd" fill="#25B2FF" d="M500.642,773.632c0.452,11.502-9.543,21.357-20.992,21.305
			c-11.841-0.055-21.331-9.265-21.368-20.974c-0.037-11.784,9.311-21.265,21.041-21.326
			C491.83,752.571,500.936,762.939,500.642,773.632z"/>
		<path fill-rule="evenodd" clip-rule="evenodd" fill="#FEFEFE" d="M1119.173,754.439c-8.899-0.091-19.856-1.543-30.344-5.646
			c-19.056-7.456-31.875-20.965-38.142-40.37c-5.93-18.364-6.107-37.021-0.458-55.46c7.06-23.045,22.679-37.658,45.746-44.301
			c10.856-3.126,21.979-3.891,33.243-3.102c9.317,0.654,18.368,2.444,26.974,6.103c18.331,7.792,30.454,21.373,36.298,40.299
			c5.712,18.499,5.812,37.24-0.055,55.707c-7.211,22.699-22.797,37.001-45.622,43.489
			C1138.956,753.392,1130.348,754.439,1119.173,754.439z"/>
	</g>
	<g>
		<path fill="#FEFEFE" d="M234.433,174.394c-3.097-14.872-8.667-29.211-12.682-43.917c-1.254-4.582-2.281-9.975-1.036-14.318
			c2.129-7.43,5.917-14.43,9.418-21.407c2.739-5.474,5.639-10.75,5.566-17.143c-0.09-8.106-1.95-15.785-5.103-23.182
			c-2.636-6.178-6.195-11.015-14.105-9.417c-0.693,0.139-1.556-0.547-2.336-0.863c-1.429-0.579-2.855-1.659-4.288-1.667
			c-8.495-0.055-16.988-0.072-25.482-0.072c-8.279,0-16.558,0.017-24.841,0.072c-1.393,0.008-2.782,1.088-4.177,1.667
			c-0.759,0.316-1.602,1.002-2.276,0.863c-7.71-1.598-11.186,3.239-13.751,9.417c-3.071,7.397-4.89,15.076-4.978,23.182
			c-0.067,6.392,2.757,11.668,5.431,17.143c3.408,6.977,7.103,13.977,9.179,21.407c1.215,4.343,0.212,9.736-1.008,14.318
			c-3.916,14.706-9.344,29.046-12.362,43.917c-2.536,12.491-3.532,25.538-3.384,38.317c0.229,19.607,1.259,39.275,3.381,58.759
			c2.107,19.356,5.776,38.557,11.913,57.131c0.17,0.523,0.364,0.982,0.582,1.389c0.22,1.351,1.366,2.39,2.743,2.39h10.642
			c0.048,0.033,0.097,0.067,0.141,0.111c-0.019,0.154-0.044,0.312-0.044,0.467v7.791c0,1.97,1.569,3.575,3.488,3.575h19.322h19.825
			c1.969,0,3.575-1.605,3.575-3.575v-7.791c0-0.155-0.025-0.313-0.044-0.467c0.044-0.044,0.096-0.078,0.146-0.111h10.915
			c1.414,0,2.585-1.039,2.813-2.39c0.223-0.406,0.423-0.865,0.604-1.389c6.289-18.574,10.055-37.774,12.216-57.131
			c2.177-19.483,3.231-39.151,3.468-58.759C238.059,199.932,237.036,186.885,234.433,174.394"/>
		<path fill="#FEFEFE" d="M176.565,394.362c-0.446,0.724-0.715,1.565-0.715,2.475v1.078v12.321c-0.118,2.066-0.156,4.136,0,6.219
			v1.788v4.312c0,2.432,1.84,4.439,4.193,4.748c0,0.205,8.251,0.221,8.251,0.024c2.495-0.167,4.486-2.239,4.486-4.774v-25.729
			c0-1.104-0.397-2.119-1.039-2.938c8.939-3.312,17.724-10.328,22.237-18.306c2.673-4.736,4.607-9.883,7.319-15.811
			c-0.21-0.007-0.417-0.017-0.624-0.025h0.624v-1.148c0-0.426-0.351-0.775-0.781-0.775H192.17v-3.045
			c0-1.445-1.188-2.631-2.634-2.631h-11.048c-1.453,0-2.638,1.186-2.638,2.637v3.039h-27.582c-0.443,0-0.797,0.354-0.797,0.794v1.13
			C152.912,375.043,160.119,388.791,176.565,394.362"/>
		<path fill="#FEFEFE" d="M-3.19,458.954c2,1.396,4.263,2.612,6.779,3.622c0.806,0.323,1.966,1.106,2.02,1.754
			c0.383,4.537,1.357,9.141,1.599,13.505c0.066,1.205,0.107,2.409,0.157,3.609h9.199c0.309-4.539,0.688-9.073,0.975-13.615
			c0.049-0.773,0.026-1.557-0.015-2.336c-0.09-1.61,0.416-2.334,2.173-3.009c3.032-1.171,6.069-2.771,8.557-4.841
			c4.99-4.168,7.814-9.094,8.779-14.605c0.496-2.023,0.786-4.124,0.786-6.295c0-2.877-0.474-5.643-1.32-8.237
			c0.2-0.676,0.61-1.295,1.351-1.886c2.386-1.906,4.638-3.984,6.945-5.983c-0.248-0.255-0.492-0.5-0.738-0.752
			c-0.649-0.841-1.3-1.687-2.354-3.051c2.77-2.552,5.447-5.012,8.123-7.476c1.191-1.098,1.383-2.028-0.036-3.264
			c-2.074-1.812-4.027-3.783-5.848-5.849c-1.634-1.851-2.813-1.538-4.323,0.158c-2.319,2.614-4.831,5.063-7.217,7.525
			c-1.131-1.041-1.91-1.755-2.744-2.526c-1.226,1.147-2.438,2.001-3.278,3.129c-1.312,1.761-2.71,3.16-4.317,3.986
			c-3.291-1.472-6.93-2.304-10.772-2.304c-3.367,0-6.574,0.651-9.539,1.794c-2.217-1.115-4.151-2.989-5.954-5.302
			c-0.46-0.59-1.805-1.317-2.051-1.115c-2.003,1.606-2.843-0.393-3.829-1.235c-1.667-1.433-3.271-3.019-4.56-4.787
			c-1.925-2.638-3.569-1.894-5.369-0.007c-2.289,2.409-4.51,4.884-6.927,7.163c-1.744,1.643-2.129,2.747,0.046,4.461
			c2.226,1.758,4.299,3.853,5.943,6.157c1.14,1.592,1.158,3.954,2.19,5.662c0.874,1.456,2.387,2.595,3.784,3.651
			c0.561,0.428,0.958,0.866,1.247,1.334c-0.96,2.739-1.508,5.685-1.508,8.752C-15.238,446.049-10.438,454.217-3.19,458.954"/>
		<path fill="#FEFEFE" d="M104.003,585.991c-10.08,0.028-3.42-0.09-12.328-0.019c-13.947,0.113-27.461-1.312-39.984-8.354
			c-21.73-12.236-33.454-30.777-35.077-55.465c-0.721-11.012-0.203-22.097-0.235-33.149c-0.027-11.236-0.195-22.473-0.024-33.707
			H7.947c0.052,10.482-0.198,20.984,0.006,31.466c0.321,16.265-2.029,32.713,2.119,48.739c1.868,7.224,4.279,14.548,7.918,21.005
			c5.378,9.546,12.839,17.592,21.962,23.997c10.56,7.415,22.206,12.514,34.963,13.151c18.899,0.942,16.12,0.62,21.76,0.612
			L104.003,585.991z"/>
		<path fill="#FEFEFE" d="M187.947,475.772c0.036-12.041-0.022-37.528-0.035-49.563h-8.288c-0.011,18.038-0.032,49.526,0.006,67.576
			c0.021,13.906-0.837,27.516-7.804,40.171c-13.535,24.594-34.654,35.915-62.168,36.275c-4.335,0.055-8.671,0.047-13.004,0.023
			l-0.632,0.112v8.237c2.214,0.027,4.495,0.046,6.87,0.059c12.109,0.077,24.071-0.268,35.601-4.646
			c12.781-4.854,23.533-12.484,32.272-22.951c9.475-11.366,15.356-24.472,16.548-39.148
			C188.28,499.922,187.915,487.822,187.947,475.772"/>
	</g>
	<g>
		<g>
			<path fill="#FEFEFE" d="M-176.684,158.336c-0.498-6.212-0.582-15.795-2.782-25.441c-6.096-26.76-18.226-50.038-38.734-68.2
				c-33.626-29.764-72.877-38.187-116.347-28.366c-31.162,7.041-55.499,24.546-73.664,50.24
				c-21.186,29.966-26.935,63.396-19.932,99.375c4.183,21.502,12.977,40.789,28.006,56.393
				c28.915,30.016,58.657,59.238,88.237,88.607c8.52,8.459,8.833,8.203,17.224-0.182c25.994-25.986,51.97-51.994,77.94-78.006
				C-191.635,227.611-175.678,198.414-176.684,158.336z M-271.184,294.227c0.156,0.322,0.353,0.666,0.583,1.029
				C-270.833,294.895-271.027,294.551-271.184,294.227z M-269.344,293.346c0.361-1.107,0.241-2.244,0.28-3.393
				c0.022,0.02,0.063,0.01,0.098,0.02c0.015,0.004,0.025,0.008,0.043,0.014c0.094,0.01,0.222-0.018,0.386-0.098
				c0.008-0.008,0.016-0.008,0.028-0.012C-268.827,291.318-268.99,292.408-269.344,293.346z M-247.081,271.088
				c0.359-1.1,0.242-2.24,0.273-3.398c0.022,0.018,0.061,0.01,0.08,0.018c0.022,0.008,0.041,0.01,0.063,0.016
				c0.099,0.012,0.23-0.02,0.398-0.104c0.007-0.002,0.013-0.002,0.017-0.004C-246.562,269.057-246.727,270.15-247.081,271.088z
				 M-246.836,267.342c0.021-0.098,0.053-0.209,0.131-0.346C-246.781,267.133-246.808,267.238-246.836,267.342z M-303.806,228.619
				c-38.738,0-70.142-31.404-70.142-70.143c0-38.738,31.404-70.142,70.142-70.142c38.737,0,70.143,31.404,70.143,70.142
				C-233.663,197.215-265.068,228.619-303.806,228.619z"/>
		</g>
		<circle fill="#FEFEFE" cx="-302.953" cy="147.894" r="26.897"/>
		<path fill="#FEFEFE" d="M-261.042,187.705c-3.367-5.373-7.815-9.633-12.503-13.512c-3.73-3.088-7.982-3.822-13.022-0.322
			c-5.49,3.811-11.396,5.668-17.325,5.664c-5.928,0.004-11.835-1.854-17.324-5.664c-5.04-3.5-9.293-2.766-13.022,0.322
			c-4.688,3.879-9.136,8.139-12.504,13.512c-2.242,3.576-2.667,6.508-1.337,9.256c11.552,10.803,27.049,17.436,44.102,17.48v0.004
			c0.029,0,0.058-0.002,0.086-0.002c0.029,0,0.058,0.002,0.087,0.002v-0.004c17.053-0.045,32.549-6.678,44.102-17.48
			C-258.374,194.213-258.8,191.281-261.042,187.705z"/>
	</g>
</g>
</svg>
