<?xml version="1.0" encoding="utf-8"?>
<!-- Generator: Adobe Illustrator 16.0.0, SVG Export Plug-In . SVG Version: 6.00 Build 0)  -->
<!DOCTYPE svg PUBLIC "-//W3C//DTD SVG 1.1//EN" "http://www.w3.org/Graphics/SVG/1.1/DTD/svg11.dtd">
<svg version="1.1" id="Layer_1" xmlns="http://www.w3.org/2000/svg" xmlns:xlink="http://www.w3.org/1999/xlink" x="0px" y="0px"
	 width="353px" height="326px" viewBox="0 -153.757 353 326" enable-background="new 0 -153.757 353 326" xml:space="preserve">
<g id="Layer_2">
</g>
<g>
	<path fill-rule="evenodd" clip-rule="evenodd" fill="#FFFFFF" d="M169.292-38.746c28.116,0,56.228,0.086,84.343-0.095
		c4.213-0.026,6.339,1.075,7.862,5.241c22.871,62.551,45.848,125.064,69.045,187.495c2.38,6.404,1.046,7.512-5.456,7.477
		c-47.916-0.249-95.831-0.134-143.746-0.134c-10.744,0-11.025,0.014-10.727,10.615c0.143,5.043-1.153,6.603-6.393,6.621
		c-5.435,0.021-7.357-1.32-6.934-6.938c0.518-6.806-0.092-13.689,0.219-20.521c0.199-4.448-0.672-6.321-5.828-6.329
		c-5.287-0.009-6.479,1.552-6.318,6.582c0.335,10.377,0.029,9.975-8.411,10.124c-4.604,0.081-5.094-2.741-6.006-5.656
		c-13.736-43.896-27.434-87.801-41.144-131.707c-4.615-14.777-8.923-29.66-13.953-44.296C72-31.456,69.854-42.66,70.342-54.558
		c0.521-12.692,0.14-25.423,0.102-38.133c-0.007-2.576-0.159-4.639,3.621-4.718c3.908-0.082,4.29,1.688,4.266,4.843
		c-0.109,15.646,0.178,31.299-0.182,46.937c-0.122,5.363,1.139,7.082,6.802,7.021C113.062-38.917,141.179-38.748,169.292-38.746z"/>
	<path fill-rule="evenodd" clip-rule="evenodd" fill="#FFFFFF" d="M103.45,160.952c-22.438,0-44.096,0-66.582,0
		c10.985-35.249,21.874-70.187,33.214-106.573C81.429,90.618,92.364,125.542,103.45,160.952z"/>
	<path fill-rule="evenodd" clip-rule="evenodd" fill="#FFFFFF" d="M82.431-97.369c8.137,5.197,16.101,5.605,24.158,5.382
		c11.92-0.33,23.053,1.74,33.306,10.792c-13.389-0.693-23.957,4.485-34.423,10.018c-1.693,0.895-3.537,1.517-5.328,2.219
		c-14.183,5.549-17.695,3.308-17.711-11.287C82.427-85.609,82.431-90.972,82.431-97.369z"/>
	<path fill-rule="evenodd" clip-rule="evenodd" fill="#FFFFFF" d="M338.713,161.348c0.006,3.175,0.015,6.354,0.004,9.531
		c-0.026,7.027-3.691,9.515-10.563,7.467c-2.234-0.667-2.365-2.099-2.365-3.855c-0.006-8.552,0.181-17.109-0.067-25.654
		c-0.166-5.669,3.831-3.863,6.537-3.887c2.744-0.021,6.822-1.68,6.499,3.941C338.522,153.031,338.711,157.194,338.713,161.348z"/>
</g>
</svg>
