<?xml version="1.0" encoding="utf-8"?>
<!-- Generator: Adobe Illustrator 16.0.0, SVG Export Plug-In . SVG Version: 6.00 Build 0)  -->
<!DOCTYPE svg PUBLIC "-//W3C//DTD SVG 1.1//EN" "http://www.w3.org/Graphics/SVG/1.1/DTD/svg11.dtd">
<svg version="1.1" xmlns="http://www.w3.org/2000/svg" xmlns:xlink="http://www.w3.org/1999/xlink" x="0px" y="0px" width="353px"
	 height="326px" viewBox="0 0 353 326" enable-background="new 0 0 353 326" xml:space="preserve">
<g id="Layer_2_1_" display="none">
	<rect display="inline" fill-rule="evenodd" clip-rule="evenodd" fill="#231F20" width="353" height="326"/>
</g>
<g id="Layer_1">
	<g id="Layer_2">
	</g>
	<g>
		<path fill-rule="evenodd" clip-rule="evenodd" fill="#010101" d="M1125.066,579.268c12.77,0.029,28.669,2.369,43.78,8.705
			c28.288,11.861,46.095,32.898,53.523,62.529c5.233,20.877,5.052,41.893-1.13,62.557c-9.135,30.533-29.22,50.768-59.265,61.124
			c-15.552,5.361-31.655,6.891-47.999,6.093c-13.904-0.679-27.455-3.224-40.322-8.701c-28.14-11.979-45.836-33.023-53.159-62.569
			c-5.381-21.708-5.025-43.509,1.977-64.835c9.794-29.834,30.212-49.246,59.868-59.076
			C1095.05,580.881,1108.18,579.256,1125.066,579.268z M1119.173,754.439c11.175,0,19.783-1.048,27.641-3.281
			c22.825-6.488,38.411-20.79,45.622-43.489c5.866-18.467,5.767-37.208,0.055-55.707c-5.844-18.926-17.967-32.507-36.298-40.299
			c-8.605-3.658-17.656-5.448-26.974-6.103c-11.264-0.789-22.387-0.024-33.243,3.102c-23.067,6.643-38.687,21.256-45.746,44.301
			c-5.649,18.439-5.472,37.096,0.458,55.46c6.267,19.405,19.086,32.914,38.142,40.37
			C1099.316,752.896,1110.273,754.349,1119.173,754.439z"/>
		<path fill-rule="evenodd" clip-rule="evenodd" fill="#010101" d="M763.435,584.158c0.483,1.113,0.411,2.168,0.456,3.191
			c0.31,7.03,0.564,14.063,0.896,21.092c0.054,1.121-0.173,1.683-1.402,1.533c-0.552-0.068-1.118-0.012-1.678-0.012
			c-40.638,0-81.274-0.004-121.912,0.006c-3.41,0.001-2.858-0.396-2.862,2.953c-0.02,15.919-0.009,31.838-0.009,47.757
			c0,0.24,0,0.479,0,0.72c0.003,2.526-0.192,2.319,2.335,2.319c33.117,0.001,66.235,0.001,99.353,0.001c0.48,0,0.96-0.002,1.44,0
			c2.25,0.012,2.055-0.21,2.056,2.059c0.003,7.12,0.008,14.239-0.002,21.358c-0.004,2.535,0.265,2.247-2.354,2.248
			c-32.558,0.005-65.115,0.003-97.674,0.003c-0.959,0-1.919,0.007-2.879-0.001c-2.604-0.021-2.272,0.018-2.272,2.394
			c-0.003,18.558-0.002,37.117-0.001,55.676c0,0.479,0.01,0.96,0.006,1.439c-0.005,0.603,0.328,0.851,0.889,0.855
			c0.721,0.008,1.439,0.008,2.16,0.008c42.236,0,84.474-0.003,126.711,0.007c2.986,0.001,2.771-0.478,2.626,2.623
			c-0.323,6.869-0.69,13.736-1.038,20.604c-0.13,2.566-0.126,2.57-2.703,2.57c-43.437,0.001-86.874,0.001-130.311,0.001
			c-8.159,0-16.318,0.004-24.479-0.003c-1.991-0.002-1.992-0.02-2.027-1.907c-0.008-0.399-0.002-0.8-0.002-1.199
			c0-61.756-0.002-123.512,0.006-185.268c0-3.625-0.351-3.019,3.061-3.019c49.676-0.015,99.353-0.01,149.029-0.01
			C761.725,584.158,762.599,584.158,763.435,584.158z"/>
		<path fill-rule="evenodd" clip-rule="evenodd" fill="#020202" d="M798.302,775.563c0.097-1.023,0.661-1.405,1.056-1.878
			c26.424-31.701,52.856-63.396,79.287-95.091c0.103-0.123,0.206-0.245,0.307-0.369c1.6-1.983,1.558-1.41,0.017-3.272
			c-8.059-9.733-16.149-19.44-24.226-29.158c-16.563-19.93-33.124-39.859-49.677-59.797c-0.293-0.353-0.749-0.631-0.746-1.24
			c0.505-0.46,1.159-0.289,1.75-0.297c10.075-0.11,20.151-0.18,30.226-0.33c1.4-0.021,2.324,0.354,3.237,1.475
			c24.189,29.707,48.419,59.379,72.643,89.058c0.253,0.31,0.47,0.656,0.757,0.929c0.688,0.655,0.539,1.235-0.073,1.832
			c-0.228,0.222-0.408,0.491-0.611,0.738c-26.082,31.774-52.174,63.541-78.215,95.35c-1.229,1.5-2.444,2.126-4.415,2.103
			c-9.599-0.112-19.198-0.05-28.798-0.05C800.03,775.564,799.241,775.563,798.302,775.563z"/>
		<path fill-rule="evenodd" clip-rule="evenodd" fill="#020202" d="M932.033,693.505c22.547,27.391,44.87,54.51,67.547,82.059
			c-1.138,0-1.739,0.001-2.341,0.001c-10.313,0-20.626-0.02-30.938,0.025c-1.23,0.005-2.04-0.331-2.837-1.313
			c-16.066-19.797-32.172-39.563-48.266-59.336c-0.247-0.304-0.452-0.641-0.741-1.053
			C920.26,707.159,926.043,700.452,932.033,693.505z"/>
		<path fill-rule="evenodd" clip-rule="evenodd" fill="#020202" d="M993.707,584.64c-20.466,24.737-40.931,49.476-61.635,74.502
			c-5.81-6.695-11.511-13.318-17.266-19.991c4.438-5.418,8.79-10.736,13.146-16.051c10.09-12.309,20.199-24.604,30.248-36.945
			c1.143-1.403,2.288-2.068,4.189-2.049c10.316,0.108,20.635,0.052,30.952,0.052C993.464,584.318,993.585,584.479,993.707,584.64z"
			/>
		<path fill-rule="evenodd" clip-rule="evenodd" fill="#17E5EB" d="M157.021,794.912c-11.795-0.007-21.228-9.397-21.23-21.137
			c-0.003-11.651,9.554-21.146,21.28-21.142c11.697,0.005,21.271,9.551,21.251,21.19
			C178.302,785.525,168.813,794.918,157.021,794.912z"/>
		<path fill-rule="evenodd" clip-rule="evenodd" fill="#1BD5F1" d="M318.427,698.354c-11.708,0.012-21.258-9.466-21.308-21.149
			c-0.05-11.635,9.506-21.115,21.288-21.122c11.805-0.007,21.284,9.394,21.276,21.1
			C339.676,688.869,330.165,698.343,318.427,698.354z"/>
		<path fill-rule="evenodd" clip-rule="evenodd" fill="#12F8E4" d="M157.045,601.474c-10.555,0.348-21.188-8.34-21.243-21.079
			c-0.052-11.666,9.529-21.17,21.241-21.165c11.711,0.005,21.335,9.505,21.258,21.165
			C178.215,593.272,167.49,601.834,157.045,601.474z"/>
		<path fill-rule="evenodd" clip-rule="evenodd" fill="#18E0ED" d="M318.466,601.473c-10.258,0.403-21.264-7.932-21.292-21.025
			c-0.026-12.463,9.998-21.168,21.19-21.212c11.714-0.046,21.378,9.485,21.303,21.107
			C339.581,593.572,328.587,601.816,318.466,601.473z"/>
		<path fill-rule="evenodd" clip-rule="evenodd" fill="#1ECBF5" d="M318.231,794.911c-10.12,0.175-21.148-7.927-21.048-21.295
			c0.096-12.722,10.527-21.073,21.417-20.988c11.669,0.092,21.168,9.692,21.083,21.356
			C339.6,785.663,330.033,794.994,318.231,794.911z"/>
		<path fill-rule="evenodd" clip-rule="evenodd" fill="#19DDEE" d="M216.719,725.712c-0.355-11.613,9.741-21.204,21.122-21.21
			c11.197-0.006,21.305,9.125,21.285,21.113c-0.02,11.73-9.433,21.161-21.188,21.199
			C225.585,746.854,216.375,736.517,216.719,725.712z"/>
		<path fill-rule="evenodd" clip-rule="evenodd" fill="#20C3F8" d="M420.576,725.369c0.371,11.027-8.939,21.005-19.994,21.428
			c-12.09,0.463-22.01-8.523-22.498-20.116c-0.498-11.809,8.708-21.484,19.984-22.138
			C409.921,703.857,420.392,713.093,420.576,725.369z"/>
		<path fill-rule="evenodd" clip-rule="evenodd" fill="#1DCEF4" d="M420.595,629.178c0.023,11.614-9.591,21.152-21.308,21.142
			c-11.708-0.012-21.191-9.506-21.197-21.222c-0.007-11.631,9.372-20.829,21.034-21.104
			C409.032,607.759,420.454,615.633,420.595,629.178z"/>
		<path fill-rule="evenodd" clip-rule="evenodd" fill="#1FC6F7" d="M479.297,601.471c-10.894,0.307-21.188-9.146-21.04-21.266
			c0.143-11.643,9.638-21.09,21.417-20.961c12.711,0.139,21.13,10.764,21.048,21.337
			C500.633,592.112,490.654,601.94,479.297,601.471z"/>
		<path fill-rule="evenodd" clip-rule="evenodd" fill="#16E8EA" d="M216.719,629.157c-0.294-11.835,10.031-21.178,21.154-21.187
			c10.745-0.01,21.263,8.771,21.24,21.15c-0.022,11.713-9.493,21.262-21.209,21.18C224.89,650.21,216.378,639.5,216.719,629.157z"/>
		<path fill-rule="evenodd" clip-rule="evenodd" fill="#25B2FF" d="M500.642,773.632c0.452,11.502-9.543,21.357-20.992,21.305
			c-11.841-0.055-21.331-9.265-21.368-20.974c-0.037-11.784,9.311-21.265,21.041-21.326
			C491.83,752.571,500.936,762.939,500.642,773.632z"/>
		<path fill-rule="evenodd" clip-rule="evenodd" fill="#FEFEFE" d="M1119.173,754.439c-8.899-0.091-19.856-1.543-30.344-5.646
			c-19.056-7.456-31.875-20.965-38.142-40.37c-5.93-18.364-6.107-37.021-0.458-55.46c7.06-23.045,22.679-37.658,45.746-44.301
			c10.856-3.126,21.979-3.891,33.243-3.102c9.317,0.654,18.368,2.444,26.974,6.103c18.331,7.792,30.454,21.373,36.298,40.299
			c5.712,18.499,5.812,37.24-0.055,55.707c-7.211,22.699-22.797,37.001-45.622,43.489
			C1138.956,753.392,1130.348,754.439,1119.173,754.439z"/>
	</g>
	<g>
		<path fill-rule="evenodd" clip-rule="evenodd" fill="#FEFEFE" d="M72.919,238.659c-7.711-0.004-13.877-6.143-13.879-13.817
			c-0.002-7.616,6.246-13.822,13.911-13.82c7.647,0.003,13.905,6.244,13.892,13.852C86.831,232.523,80.628,238.663,72.919,238.659z"
			/>
		<path fill-rule="evenodd" clip-rule="evenodd" fill="#FEFEFE" d="M178.434,175.537c-7.654,0.008-13.897-6.188-13.93-13.825
			c-0.032-7.606,6.214-13.804,13.916-13.809c7.717-0.004,13.914,6.142,13.909,13.793
			C192.324,169.337,186.106,175.531,178.434,175.537z"/>
		<path fill-rule="evenodd" clip-rule="evenodd" fill="#FEFEFE" d="M72.935,112.206c-6.899,0.227-13.851-5.452-13.887-13.78
			c-0.034-7.626,6.229-13.839,13.886-13.836c7.655,0.003,13.946,6.214,13.896,13.836C86.773,106.844,79.763,112.441,72.935,112.206z
			"/>
		<path fill-rule="evenodd" clip-rule="evenodd" fill="#FEFEFE" d="M178.459,112.205c-6.706,0.264-13.901-5.185-13.919-13.745
			c-0.018-8.147,6.535-13.838,13.852-13.866c7.658-0.03,13.976,6.2,13.927,13.798C192.262,107.04,185.075,112.429,178.459,112.205z"
			/>
		<path fill-rule="evenodd" clip-rule="evenodd" fill="#FEFEFE" d="M178.305,238.659c-6.615,0.113-13.824-5.183-13.759-13.921
			c0.063-8.317,6.882-13.776,14.001-13.721c7.628,0.061,13.838,6.336,13.782,13.961
			C192.273,232.613,186.021,238.713,178.305,238.659z"/>
		<path fill-rule="evenodd" clip-rule="evenodd" fill="#FEFEFE" d="M111.945,193.423c-0.233-7.593,6.367-13.862,13.807-13.866
			c7.32-0.004,13.928,5.965,13.915,13.802c-0.013,7.669-6.166,13.834-13.851,13.858C117.74,207.244,111.72,200.485,111.945,193.423z
			"/>
		<path fill-rule="evenodd" clip-rule="evenodd" fill="#FEFEFE" d="M245.21,193.197c0.242,7.209-5.845,13.732-13.07,14.008
			c-7.903,0.303-14.389-5.571-14.708-13.149c-0.325-7.72,5.692-14.045,13.064-14.473
			C238.244,179.135,245.089,185.174,245.21,193.197z"/>
		<path fill-rule="evenodd" clip-rule="evenodd" fill="#FEFEFE" d="M245.223,130.316c0.015,7.592-6.271,13.828-13.93,13.821
			c-7.653-0.008-13.854-6.214-13.857-13.873c-0.004-7.603,6.127-13.617,13.75-13.796
			C237.663,116.314,245.13,121.461,245.223,130.316z"/>
		<path fill-rule="evenodd" clip-rule="evenodd" fill="#FEFEFE" d="M283.597,112.203c-7.121,0.201-13.851-5.979-13.755-13.901
			c0.094-7.611,6.301-13.787,14.001-13.703c8.31,0.091,13.813,7.037,13.76,13.948C297.545,106.085,291.021,112.51,283.597,112.203z"
			/>
		<path fill-rule="evenodd" clip-rule="evenodd" fill="#FEFEFE" d="M111.945,130.303c-0.193-7.737,6.557-13.844,13.828-13.85
			c7.024-0.006,13.9,5.733,13.886,13.826c-0.016,7.657-6.207,13.899-13.865,13.846C117.286,144.065,111.722,137.063,111.945,130.303
			z"/>
		<path fill-rule="evenodd" clip-rule="evenodd" fill="#FEFEFE" d="M297.551,224.749c0.295,7.519-6.239,13.962-13.724,13.927
			c-7.741-0.035-13.944-6.057-13.969-13.712c-0.024-7.702,6.087-13.9,13.755-13.94C291.789,210.98,297.742,217.758,297.551,224.749z
			"/>
	</g>
</g>
</svg>
