<?xml version="1.0" encoding="utf-8"?>
<!-- Generator: Adobe Illustrator 16.0.0, SVG Export Plug-In . SVG Version: 6.00 Build 0)  -->
<!DOCTYPE svg PUBLIC "-//W3C//DTD SVG 1.1//EN" "http://www.w3.org/Graphics/SVG/1.1/DTD/svg11.dtd">
<svg version="1.1" id="Layer_1" xmlns="http://www.w3.org/2000/svg" xmlns:xlink="http://www.w3.org/1999/xlink" x="0px" y="0px"
	 width="353px" height="326px" viewBox="0 0 353 326" enable-background="new 0 0 353 326" xml:space="preserve">
<g id="Layer_2">
</g>
<g>
	<path fill="#FFFFFF" d="M328.205,219.597c0,3.868,0,7.259,0,10.95c-1.528,0-2.999-0.022-4.468,0.011
		c-0.774,0.017-1.556,0.083-2.313,0.225c-1.187,0.221-2.271,0.663-2.159,2.149c0.11,1.459,0.553,2.776,2.36,2.813
		c2.143,0.043,4.277,0.01,6.531,0.01c0,3.784,0,7.219,0,10.964c-2.227,0-4.42-0.018-6.607,0.01
		c-1.077,0.016-1.981,0.277-2.302,1.545c-0.452,1.81-0.035,2.671,1.823,2.857c2.305,0.234,4.633,0.249,7.074,0.361
		c0,3.481,0,6.923,0,10.653c-1.472,0-2.947-0.023-4.418,0.013c-0.89,0.019-1.795,0.049-2.672,0.209
		c-1.328,0.246-1.902,1.245-1.884,2.482c0.021,1.239,0.608,2.255,1.968,2.398c1.602,0.17,3.217,0.198,4.826,0.265
		c0.7,0.033,1.399,0.009,2.204,0.009c0,3.647,0,7.082,0,10.795c-1.976,0-3.876-0.076-5.762,0.037
		c-0.848,0.047-1.945,0.243-2.439,0.804c-0.528,0.602-0.793,1.797-0.583,2.575c0.176,0.675,1.123,1.518,1.825,1.614
		c2.235,0.315,4.515,0.322,6.922,0.456c0,3.188,0,6.391,0,9.835c-0.739,0.036-1.55,0.04-2.349,0.115
		c-1.601,0.152-3.226,0.221-4.785,0.563c-1.116,0.246-2.149,0.896-1.939,2.376c0.186,1.36,0.683,2.35,2.346,2.294
		c2.199-0.065,4.402-0.014,6.735-0.014c0,3.732,0,7.172,0,10.924c-1.458,0-2.928-0.023-4.393,0.008
		c-0.895,0.02-1.801,0.045-2.677,0.205c-1.328,0.241-1.914,1.23-1.899,2.473c0.016,1.233,0.583,2.283,1.947,2.408
		c2.31,0.21,4.632,0.283,6.933,0.412c0,6.024,0,12.028,0,18.318c-66.765,0.211-133.289,0.493-199.811-0.006
		c-0.12-0.214-0.242-0.426-0.363-0.642c66.521-90.349,133.038-180.694,199.558-271.04c0.192,0.074,0.383,0.148,0.574,0.222
		c0,13.644,0,27.287,0,41.213c-1.807,0-3.7-0.026-5.595,0.007c-2.158,0.042-3.215,0.883-3.262,2.51
		c-0.049,1.642,0.991,2.57,3.106,2.667c1.61,0.077,3.232,0.007,4.838,0.139c0.417,0.038,1.112,0.589,1.121,0.917
		c0.087,3.212,0.053,6.431,0.053,9.964c-2.361,0-4.56-0.101-6.745,0.029c-2.116,0.123-2.807,0.975-2.522,2.616
		c0.208,1.211,0.937,1.776,2.102,1.79c2.313,0.023,4.63,0.007,7.056,0.007c0,3.783,0,7.22,0,10.971
		c-2.022,0-4.052-0.148-6.038,0.064c-0.937,0.1-2.117,0.674-2.626,1.42c-1.029,1.513,0.075,3.485,1.992,3.623
		c2.181,0.159,4.387,0.037,6.78,0.037c0,3.598,0.039,6.811-0.063,10.021c-0.01,0.329-0.847,0.863-1.333,0.905
		c-2.25,0.188-4.518,0.244-6.735,0.343c-0.138,0.311-0.256,0.461-0.271,0.622c-0.314,4.093-0.312,4.078,3.745,4.228
		c1.485,0.06,2.968,0.176,4.55,0.272c0,3.347,0,6.554,0,10.039c-1.132,0-2.248-0.067-3.355,0.015
		c-1.3,0.106-2.626,0.219-3.879,0.554c-1.12,0.307-2.088,0.945-1.868,2.43c0.209,1.43,0.829,2.265,2.433,2.213
		c2.191-0.072,4.384-0.019,6.676-0.019c0,3.812,0,7.249,0,10.969c-1.957,0-3.855-0.075-5.744,0.035
		c-0.851,0.049-1.951,0.229-2.444,0.787c-0.535,0.603-0.838,1.824-0.6,2.567c0.237,0.722,1.245,1.585,1.989,1.663
		c2.184,0.215,4.401,0.077,6.755,0.077c0,3.803,0,7.281,0,11.049c-2.195,0-4.333,0.039-6.469-0.011
		c-1.607-0.039-2.396,0.711-2.595,2.269c-0.204,1.587,0.856,2.249,2.046,2.458c2.277,0.394,4.6,0.543,7.037,0.81
		c0,3.128,0,6.333,0,9.874c-1.005,0-2.047-0.011-3.091,0.002c-1.133,0.019-2.274,0.008-3.403,0.097
		c-1.535,0.115-2.471,0.991-2.479,2.538c-0.008,1.53,0.849,2.499,2.427,2.544C323.736,219.643,325.878,219.597,328.205,219.597z
		 M289.542,173.454c-0.152-0.052-0.301-0.105-0.454-0.154c-29.838,40.81-59.681,81.624-89.794,122.814c30.394,0,60.267,0,90.248,0
		C289.542,255.163,289.542,214.307,289.542,173.454z"/>
	<path fill="#FFFFFF" d="M60.508,130.385c6.413,3.819,12.414,7.398,18.417,10.969c0.307,0.184,0.634,0.337,0.954,0.495
		c3.843,1.898,4.348,1.603,5.049-2.573c0.3-1.779-0.754-2.388-2.007-3.131c-5.03-2.991-10.077-5.958-14.989-9.133
		c-2.938-1.892-2.894-2.398-0.837-5.252c0.837-1.165,1.749-2.274,2.624-3.411c0.793-1.032,1.561-1.123,2.727-0.367
		c3.855,2.509,7.733,5.006,11.731,7.281c3.586,2.043,3.73,1.933,4.8-2.017c3.33-12.276,6.554-24.584,9.937-36.847
		c0.601-2.18,0.031-3.671-1.276-5.377c-2.165-2.831-4.221-5.797-5.906-8.928c-1.041-1.936-1.719-4.264-1.836-6.453
		c-0.209-3.859-0.389-7.852,0.349-11.607c1.729-8.767,7.449-14.742,15.212-18.587c2.752-1.363,3.592-2.758,3.535-5.704
		c-0.193-9.628-0.063-19.265-0.054-28.894c0.004-1.018,0.016-2.034,0.071-3.053c0.307-5.541,4.171-8.574,9.69-7.615
		c4.937,0.859,6.41,2.466,6.7,7.695c0.21,3.763,0.285,7.535,0.308,11.301c0.05,7.718,0.044,15.435,0.008,23.151
		c-0.003,1.107,0.306,1.652,1.382,2.111c19.51,8.313,23.146,30.423,11.364,44.81c-1.315,1.609-2.989,2.925-4.376,4.485
		c-0.423,0.475-0.757,1.387-0.604,1.967c3.428,13.108,6.94,26.193,10.392,39.297c0.356,1.347,1.129,1.485,2.107,0.976
		c3.333-1.737,6.658-3.494,9.919-5.362c1.903-1.09,3.679-2.405,5.677-3.729c2.09,2.832,4.096,5.496,6.045,8.203
		c0.782,1.083-0.279,1.545-0.916,1.925c-5.272,3.166-10.58,6.271-15.878,9.396c-0.051,0.032-0.108,0.048-0.166,0.073
		c-3.75,1.679-3.782,1.832-2.263,5.649c0.56,1.404,1.341,1.933,2.73,1.149c6.083-3.425,12.167-6.853,18.232-10.311
		c0.921-0.526,1.737-1.241,2.677-1.928c0.334,0.38,0.638,0.659,0.864,0.98c4.013,5.585,7.994,11.193,12.034,16.755
		c0.93,1.279,0.824,2.029-0.52,2.986c-8.453,6.034-17.388,11.189-27.082,14.957c-1.708,0.661-1.964,1.453-1.548,3.157
		c6.465,26.393,12.851,52.81,19.296,79.207c0.297,1.221,0.181,2.124-0.598,3.131c-3.581,4.64-7.09,9.334-10.627,14.004
		c-0.39,0.513-0.835,0.989-1.507,1.788c-0.276-0.951-0.482-1.595-0.643-2.243c-7.531-30.317-15.058-60.636-22.583-90.951
		c-0.592-2.396-0.755-2.516-3.164-2.14c-10.771,1.688-21.583,1.317-32.394,0.603c-2.437-0.16-4.868-0.547-7.265-1.008
		c-1.484-0.285-2.115,0.066-2.518,1.577C89.561,189.707,85.27,205.55,81,221.403c-0.67,2.482-1.281,4.984-1.98,7.458
		c-0.279,0.988-0.083,1.373,0.954,1.823c3.005,1.313,4.494,2.716,3.548,6.132c-4.007,14.441-7.891,28.926-11.851,43.379
		c-0.61,2.222-1,2.5-3.183,1.936c-7.813-2.014-15.612-4.093-23.391-6.232c-2.21-0.607-2.484-1.176-1.892-3.421
		c3.727-14.157,7.491-28.303,11.249-42.446c0.044-0.173,0.117-0.338,0.173-0.511c1.441-4.276,1.771-4.558,6.302-4.119
		c1.444,0.141,1.408-0.801,1.617-1.589c3.048-11.435,6.082-22.871,9.091-34.318c1.714-6.517,3.295-13.07,5.121-19.554
		c0.547-1.946-0.098-2.857-1.668-3.698c-5.421-2.901-10.875-5.763-16.189-8.854c-3.562-2.071-6.9-4.521-10.346-6.785
		c-1.021-0.671-1.392-1.509-0.645-2.557C52.154,142.063,56.43,136.092,60.508,130.385z M99.335,60.63
		c-0.053,10.48,7.551,18.307,17.894,18.412c9.856,0.1,17.823-7.987,17.936-18.105c0.096-8.596-7.19-18.169-17.927-18.096
		C106.629,42.911,99.295,51.336,99.335,60.63z M116.558,90.342c-0.171,0.021-0.341,0.039-0.512,0.058
		c-0.223,0.666-0.48,1.321-0.661,1.998c-2.273,8.486-4.584,16.964-6.773,25.47c-1.082,4.216-1.942,8.49-2.885,12.742
		c-0.175,0.777-0.358,1.612,0.912,1.622c5.853,0.046,11.71,0.247,17.557,0.103c3.091-0.076,3.194-0.368,2.451-3.409
		c-2.086-8.517-4.227-17.019-6.426-25.503C119.087,99.038,117.783,94.704,116.558,90.342z M132.301,149.187
		c-0.521-1.971-0.99-3.496-1.312-5.051c-0.237-1.149-0.803-1.309-1.892-1.222c-8.235,0.634-16.469,0.76-24.694-0.181
		c-2.458-0.284-2.917,0.103-3.251,2.572c-0.078,0.59-0.02,1.198-0.104,1.788c-0.188,1.324,0.506,1.848,1.692,1.954
		c4.757,0.422,9.512,1.154,14.27,1.172C121.989,150.241,126.971,149.575,132.301,149.187z"/>
	<path fill="#FFFFFF" d="M40.929,331.772c1.255-6.938,2.393-13.34,3.574-19.734c0.658-3.582,1.277-7.177,2.139-10.711
		c0.422-1.733,0.085-2.909-1.382-3.779c-1.624-0.965-1.956-2.149-1.334-4.008c1.172-3.506,2.064-7.105,3.011-10.686
		c0.292-1.104,0.845-1.461,1.934-1.169c4.38,1.177,8.767,2.348,13.157,3.481c1.25,0.324,1.643,1.018,1.31,2.231
		c-1.077,3.913-2.056,7.86-3.273,11.728c-0.243,0.765-1.336,1.684-2.122,1.771c-1.868,0.203-2.737,1.227-3.292,2.794
		c-1.881,5.353-3.744,10.709-5.65,16.058c-1.422,3.995-2.836,7.998-4.411,11.938c-0.278,0.697-1.291,1.453-2.019,1.507
		C42.02,333.231,41.389,332.202,40.929,331.772z"/>
</g>
</svg>
