<?xml version="1.0" encoding="utf-8"?>
<!-- Generator: Adobe Illustrator 16.0.0, SVG Export Plug-In . SVG Version: 6.00 Build 0)  -->
<!DOCTYPE svg PUBLIC "-//W3C//DTD SVG 1.1//EN" "http://www.w3.org/Graphics/SVG/1.1/DTD/svg11.dtd">
<svg version="1.1" id="Layer_1" xmlns="http://www.w3.org/2000/svg" xmlns:xlink="http://www.w3.org/1999/xlink" x="0px" y="0px"
	 width="353px" height="326px" viewBox="0 0 353 326" enable-background="new 0 0 353 326" xml:space="preserve">
<g id="Layer_2">
</g>
<g>
	<path fill="#FFFFFF" d="M257.291,321.341c-9.827,2.604-19.749,4.487-29.959,4.843c-7.119,0.255-14.152-0.656-21.221-1.042
		c-8.34-1.987-16.748-3.695-24.717-7.058c-6.304-2.664-12.482-5.553-18.185-9.329c-2.118-1.405-4.08-1.879-6.551-1.389
		c-15.972,3.141-32.136,4.088-48.358,3.422c-18.083-0.737-36.026-2.65-53.144-9.095c-8.395-3.164-16.216-7.199-20.591-15.691
		c-0.058-0.247-0.117-0.494-0.17-0.737c-0.137-0.246-0.274-0.489-0.411-0.733c-0.049-0.458-0.099-0.913-0.148-1.37
		c-0.063-2.365-0.125-4.729-0.188-7.096c0-2.624,0-5.248,0-7.873c-0.002-2.378-0.002-4.751-0.004-7.126c0-2.586,0-5.168,0.002-7.756
		c-0.002-2.396-0.002-4.79-0.002-7.188c0-2.582,0-5.168,0.002-7.752c-0.002-2.395-0.002-4.793-0.002-7.187
		c0-2.585,0-5.168,0.002-7.754c-0.002-2.394-0.002-4.792-0.002-7.188c0-2.582,0-5.17,0.002-7.75
		c-0.002-2.396-0.002-4.794-0.002-7.188c0-2.586,0-5.17,0.002-7.752c-0.002-2.396-0.002-4.793-0.002-7.191
		c0-2.584,0-5.166,0.002-7.75c-0.002-2.396-0.002-4.796-0.002-7.193c0-2.583,0-5.164,0.002-7.746
		c-0.002-2.401-0.002-4.794-0.002-7.194c0-2.582,0-5.167,0.002-7.749c-0.002-2.399-0.002-4.795-0.002-7.192
		c0-2.581,0-5.166,0.002-7.752c-0.002-2.396-0.002-4.795-0.002-7.189c0-2.584,0-5.167,0.002-7.75
		c-0.002-2.396-0.002-4.792-0.002-7.192c0-2.585,0-5.164,0.002-7.75c-0.002-2.399-0.002-4.793-0.002-7.19
		c0-2.584,0-5.168,0.002-7.75c-0.002-2.397-0.002-4.795-0.002-7.191c0-2.582,0-5.168,0.002-7.751
		c-0.002-2.396-0.002-4.794-0.002-7.188c0-2.584,0-5.17,0.002-7.751c0.015-2.377,0.03-4.754,0.043-7.135
		c0.016-0.239,0.033-0.482,0.048-0.727c0.12-0.869,0.239-1.74,0.356-2.613c2.742-6.625,8.129-10.587,14.096-13.951
		c15.218-7.068,31.434-9.827,47.982-11.225c14.446-1.217,28.886-1.21,43.317,0.074c14.501,1.292,28.81,3.646,42.38,9.255
		c4.946,2.042,9.598,4.585,13.433,8.401c3.203,3.186,5.581,6.845,5.241,11.563c-0.201,2.762,1.004,3.12,3.265,2.755
		c17.04-2.749,34.191-3.326,51.379-2.09c17.127,1.232,34.086,3.491,49.976,10.591c2.785,1.243,5.511,2.764,7.991,4.531
		c5.917,4.207,9.179,9.599,9.073,17.359c-0.318,22.286-0.102,44.578-0.112,66.869c-0.003,1.673,0.202,3.185,1.011,4.748
		c20.623,39.846,19.099,78.924-4.185,117.214c-0.242,0.398-0.428,0.833-0.644,1.252c-8.556,12.204-18.938,22.593-31.146,31.15
		c-5.19,2.927-10.376,5.853-15.567,8.777C266.823,317.698,262.057,319.522,257.291,321.341z M276.571,110.961
		c-0.171,0.059-0.341,0.118-0.515,0.177c0.182,0.138,0.355,0.273,0.535,0.411c0.532,0.278,1.073,0.56,1.608,0.837
		c0.725,0.767,1.614,1.242,2.642,1.462c9.052,5.704,17.426,12.256,24.957,19.874c0.956,1.134,1.267,0.554,1.261-0.52
		c-0.021-1.941-0.105-3.886-0.164-5.832c-0.021-2.625-0.04-5.247-0.056-7.87c0.38-2.618,0.361-5.233,0.018-7.853
		c-0.009-2.361-0.018-4.726-0.024-7.085c0.008-0.231,0.02-0.461,0.027-0.69c0.008-0.463,0.012-0.928,0.021-1.393
		c-0.321-1.265-0.78-0.504-1.214-0.081c-3.767,1.45-7.531,2.898-11.296,4.349c-3.087,0.778-6.178,1.556-9.269,2.334
		c-0.457,0.161-0.916,0.324-1.374,0.484c-0.732,0.095-1.463,0.188-2.195,0.276c-0.457,0.147-0.913,0.29-1.373,0.433
		c-0.724,0.07-1.445,0.145-2.169,0.216C277.433,110.392,276.911,110.405,276.571,110.961L276.571,110.961L276.571,110.961z
		 M264.491,69.696c-2.308-0.96-4.721-0.706-7.115-0.669c-7.56-1.233-15.17-0.85-22.772-0.685c-2.369,0.026-4.735,0.052-7.104,0.078
		c-8.271,0.188-16.443,1.252-24.613,2.461c-2.086,0.306-2.348,1.21-2.316,2.996c0.109,5.672,0.277,11.355-0.018,17.01
		c-0.178,3.329,0.616,5.111,4.183,4.913c2.605,0.252,5.136,1.221,7.811,0.879c2.324,0.735,4.702,0.951,7.124,0.709
		c0.703,0.04,1.405,0.077,2.108,0.116c4.168,1.163,8.45,0.739,12.665,0.718c7.18-0.036,14.396,0.597,21.536-0.695
		c0.465-0.033,0.928-0.06,1.392-0.088c2.399,0.029,4.828,0.356,7.129-0.659c2.659,0.216,5.229-0.368,7.807-0.868
		c2.412-0.256,4.837-0.438,7.128-1.35c2.723,0.04,5.233-0.969,7.819-1.593c5.737-1.396,11.38-3.097,16.497-6.133
		c4.159-2.47,4.2-3.912,0.227-6.474c-5.109-3.293-10.742-5.303-16.685-6.486c-4.133-1.459-8.366-2.445-12.743-2.783
		C271.264,70.14,267.917,69.607,264.491,69.696z M167.728,77.546c-2.719,0.292-5.322,1.052-7.897,1.941
		c-5.71,0.989-11.424,1.979-17.137,2.971c-1.614,0.108-3.227,0.218-4.837,0.332c-7.58,0.808-15.197,0.235-22.787,0.602
		c-2.367,0.003-4.733,0.005-7.102,0.011c-2.611-0.052-5.223-0.103-7.834-0.153c-2.328-0.661-4.705-0.826-7.11-0.658
		c-2.614-0.396-5.23-0.793-7.847-1.191c-1.124-0.123-2.246-0.25-3.371-0.373c-0.282-0.109-0.561-0.219-0.841-0.33
		c-0.25-0.047-0.498-0.091-0.746-0.142c-5.694-1.4-11.39-2.806-17.082-4.206c-2.606-0.805-5.21-1.604-7.812-2.4
		c-2.009-0.868-4.018-1.731-6.301-2.713c0,3.813,0,7.197,0,10.578c0,2.368,0.003,4.737,0.006,7.105
		c-0.042,1.057,0.063,2.143-0.137,3.171c-1.246,6.262,1.941,9.49,7.374,11.668c9.318,3.737,18.879,6.354,28.864,7.405
		c1.529,0.855,3.212,0.496,4.839,0.605c0.523,0.118,1.054,0.236,1.584,0.354c0.485,0.048,0.975,0.095,1.46,0.145
		c10.005,1.197,20.054,1.671,30.112,1.248c7.294-0.311,14.648-0.18,21.841-1.794c2.668,0.249,5.212-0.544,7.806-0.928
		c2.905-0.567,5.909-0.704,8.681-1.889c2.203-0.071,4.269-0.684,6.267-1.571c5.296-1.176,10.274-3.144,14.866-6.026
		c1.576-0.988,3.021-2.048,2.977-4.383c-0.157-7.646-0.124-15.296-0.166-22.945c0.343-1.757,0.332-2.988-2.084-1.929
		c-2.781,1.22-5.647,2.24-8.477,3.345C172.377,75.815,170,76.505,167.728,77.546z M115.07,37.813
		c-2.367,0.042-4.733,0.086-7.099,0.131c-15.232,0.527-30.284,2.204-44.833,7.065c-3.28,0.907-6.408,2.2-9.357,3.886
		c-1.809,1.038-4.701,1.932-4.541,3.945c0.18,2.259,2.907,3.382,5.162,4.17c0.795,0.447,1.561,0.968,2.394,1.335
		c9.291,4.067,19.096,6.165,29.086,7.55c1.175,0.093,2.351,0.188,3.525,0.282c0.659,0.435,1.374,0.611,2.157,0.451
		c0.484,0.035,0.969,0.073,1.452,0.108c2.377,0.218,4.752,0.433,7.131,0.649c2.606,0.07,5.21,0.146,7.816,0.219
		c6.238,0.785,12.472,0.794,18.711,0.043c3.735-0.057,7.495,0.23,11.17-0.748c2.404,0.02,4.819,0.159,7.117-0.771
		c2.681,0.273,5.219-0.578,7.814-0.968c7.031-1.228,14.067-2.444,20.638-5.426c0.473-0.144,0.944-0.29,1.416-0.434
		c2.771-0.712,5.251-2.063,7.639-3.573c3.712-2.356,3.792-3.293,0.203-5.607c-4.575-2.951-9.581-4.963-14.944-6.023l0,0
		c-0.218-0.1-0.438-0.201-0.654-0.298c-0.722-0.158-1.444-0.313-2.169-0.469c-11.08-3.37-22.456-4.745-33.991-4.993
		c-1.19-0.556-2.437-0.581-3.705-0.392c-1.435-0.033-2.862-0.069-4.297-0.103C120.296,37.834,117.684,37.822,115.07,37.813z
		 M133.582,142.298c4.409-4.896,8.582-10.003,14.204-14.961c-1.886,0-2.786-0.079-3.676,0.014c-2.092,0.226-4.175,0.529-6.263,0.798
		c-2.009,0.073-4.021,0.119-6.027,0.224c-21.478,1.146-42.811,0.712-63.742-5.151c-6.403-1.795-12.645-4.088-19.162-6.247
		c0,7.138,0.543,13.947-0.153,20.625c-0.688,6.624,2.333,9.851,7.917,11.821c0.438,0.159,0.843,0.426,1.281,0.595
		c20.493,7.791,41.915,9.093,63.521,9.161c1.086,0.005,1.709-0.418,2.206-1.383C126.48,152.311,130.192,147.404,133.582,142.298z
		 M223.561,113.723c-54.645-0.047-98.341,43.716-98.686,98.292c-0.334,53.229,42.95,98.727,98.254,98.864
		c54.584,0.136,98.974-44.142,98.97-98.628C322.097,156.832,276.673,113.273,223.561,113.723z M48.901,253.529
		c0,8.339,0.125,16.356-0.072,24.368c-0.063,2.628,0.91,4.215,2.975,5.508c3.826,2.398,7.958,4.095,12.254,5.379
		c23.334,6.991,47.223,7.896,71.305,6.138c2.707-0.2,5.61,0.185,8.493-1.216c-7.376-7.564-13.982-15.444-18.845-24.555
		c-1.62-3.037-3.457-4-6.839-3.854c-15.192,0.674-30.225-0.691-45.055-4.185C64.985,259.198,57.09,256.517,48.901,253.529z
		 M48.903,162.484c0,8.794,0.036,17.321-0.028,25.85c-0.018,1.985,1.165,2.98,2.558,3.931c3.742,2.556,7.918,4.152,12.203,5.499
		c13.976,4.406,28.378,6.006,42.937,6.812c2.671,0.152,3.262-0.719,3.401-2.989c0.512-8.307,2.398-16.353,5.219-24.14
		c1.073-2.962,0.274-3.245-2.421-3.175c-14.149,0.359-28.055-1.474-41.803-4.836C63.532,167.617,56.344,165.049,48.903,162.484z
		 M48.916,207.98c0,7.161,0.57,13.848-0.158,20.393c-0.748,6.728,2.189,10.13,7.942,12.156c0.439,0.157,0.843,0.431,1.279,0.603
		c17.995,7.059,36.893,8.559,55.95,9.15c2.391,0.075,1.645-1.088,1.231-2.396c-2.618-8.22-4.67-16.561-5.206-25.202
		c-0.132-2.117-0.822-2.938-3.194-2.919c-10.193,0.105-20.242-1.266-30.221-3.312C67.179,214.531,58.164,211.524,48.916,207.98z"/>
	<path fill="#FFFFFF" d="M211.731,224.19c-0.02-0.822-0.038-1.646-0.054-2.473c0.021-2.629,0.731-5.286-0.313-7.876
		c-0.364-0.066-0.729-0.132-1.095-0.194c-1.273-0.36-2.548-0.718-3.827-1.072c-1.202-0.458-2.408-0.913-3.611-1.367
		c-0.228-0.15-0.454-0.298-0.685-0.449c-3.977-2.202-7.503-4.966-10.367-8.521c-12.898-15.995-3.58-33.451,7.394-40.346
		c3.239-2.04,6.687-3.537,10.443-4.15c1.641-0.266,2.206-0.801,2.258-2.502c0.139-4.443,2.886-7.358,6.57-7.289
		c3.764,0.074,6.405,3.008,6.432,7.452c0.012,1.673,0.509,2.068,2.157,2.406c11.21,2.299,19.14,8.753,23.573,19.345
		c1.776,4.242,0.221,8.036-3.734,9.534c-3.749,1.423-7.412-0.41-8.863-4.702c-1.874-5.536-5.537-9.135-10.995-11.08
		c-1.615-0.575-2.146-0.275-2.132,1.509c0.062,8.813,0.062,17.628-0.004,26.442c-0.011,1.48,0.507,1.763,1.899,1.987
		c13.897,2.234,24.857,14.197,25.021,28.081c0.118,10.121-5.391,17.493-13.523,23.051c-3.425,2.337-7.234,3.768-11.289,4.486
		c-1.52,0.271-2.138,0.764-2.126,2.476c0.03,4.471-2.587,7.224-6.518,7.224c-3.882,0-6.591-2.607-6.425-6.929
		c0.104-2.707-1.584-2.621-3.16-2.967c-10.411-2.285-17.798-8.294-22.184-17.977c-2.074-4.572-1.374-7.857,1.982-9.988
		c3.299-2.097,6.621-1.183,9.767,2.68c1.464,6.304,5.323,10.374,11.399,12.523c1.678,0.595,2.199,0.244,2.17-1.496
		C211.802,236.071,211.777,230.132,211.731,224.19z M199.04,188.525c1.633,4.487,4.619,7.634,9.171,9.214
		c3.642,1.705,3.636,1.705,3.636-2.234c0.008-7.478-0.064-14.959,0.082-22.435c0.052-2.653-0.79-2.957-3.016-2.003
		c-6.089,2.611-9.523,7.128-10.219,13.72c-0.29,0.819-0.256,1.64-0.022,2.463C198.517,187.759,198.563,188.203,199.04,188.525z
		 M237.871,229.687c-0.112-6.592-4.842-12.874-10.967-14.598c-1.277-0.362-2.041-0.424-2.024,1.381
		c0.077,8.863,0.037,17.729,0.037,26.553c1.254,0.423,2.089-0.392,3.057-0.598C234.283,239.791,238.114,234.864,237.871,229.687z"/>
</g>
</svg>
