<?xml version="1.0" encoding="utf-8"?>
<!-- Generator: Adobe Illustrator 16.0.0, SVG Export Plug-In . SVG Version: 6.00 Build 0)  -->
<!DOCTYPE svg PUBLIC "-//W3C//DTD SVG 1.1//EN" "http://www.w3.org/Graphics/SVG/1.1/DTD/svg11.dtd">
<svg version="1.1" id="Layer_1" xmlns="http://www.w3.org/2000/svg" xmlns:xlink="http://www.w3.org/1999/xlink" x="0px" y="0px"
	 width="353px" height="326px" viewBox="0 -153.757 353 326" enable-background="new 0 -153.757 353 326" xml:space="preserve">
<g id="Layer_2">
</g>
<g>
	<path fill-rule="evenodd" clip-rule="evenodd" fill="#FFFFFF" d="M242.684,0.102c-0.244-3.044-0.286-7.74-1.363-12.467
		c-2.988-13.113-8.932-24.521-18.982-33.42c-16.477-14.586-35.712-18.713-57.014-13.901c-15.271,3.45-27.196,12.029-36.098,24.62
		C118.845-20.382,116.028-4,119.46,13.631c2.049,10.536,6.359,19.988,13.724,27.634c14.169,14.709,28.744,29.029,43.239,43.421
		c4.175,4.145,4.329,4.02,8.44-0.089c12.738-12.734,25.467-25.479,38.193-38.226C235.358,34.049,243.177,19.742,242.684,0.102z
		 M197.401,64.423c0.008-0.046,0.025-0.099,0.06-0.164C197.426,64.323,197.413,64.373,197.401,64.423z M197.391,64.508
		L197.391,64.508L197.391,64.508L197.391,64.508L197.391,64.508c-0.014,0.005-0.023,0.01-0.037,0.016
		C197.368,64.518,197.377,64.513,197.391,64.508z M196.124,65.85c0,0.005,0.004,0.011,0.004,0.018
		C196.127,65.86,196.124,65.854,196.124,65.85z M196.375,66.693c0.077,0.158,0.173,0.327,0.286,0.505
		c0.105-0.097,0.193-0.195,0.271-0.294c-0.078,0.1-0.166,0.198-0.271,0.294C196.547,67.021,196.452,66.852,196.375,66.693z
		 M196.196,66.245c0.01,0.031,0.029,0.069,0.042,0.104C196.225,66.314,196.206,66.276,196.196,66.245z M197.686,64.562
		c-0.183,0.829-0.253,1.427-0.502,1.937c0.289-0.616,0.208-1.255,0.23-1.9c0.011,0.011,0.032,0.006,0.048,0.011
		c0.007,0.001,0.013,0.003,0.021,0.005c0.047,0.006,0.109-0.008,0.189-0.047C197.676,64.564,197.68,64.564,197.686,64.562
		L197.686,64.562c0.02-0.01,0.033-0.01,0.055-0.022C197.719,64.552,197.706,64.552,197.686,64.562z M197.008,66.795
		c0.047-0.066,0.092-0.135,0.128-0.202C197.098,66.662,197.055,66.73,197.008,66.795z M196.907,64.713
		c0.005-0.003,0.008-0.006,0.012-0.008C196.915,64.707,196.912,64.71,196.907,64.713z M208.307,53.519
		c0.01-0.048,0.025-0.102,0.063-0.169C208.333,53.417,208.32,53.469,208.307,53.519z M208.295,53.584L208.295,53.584
		c-0.006,0.003-0.012,0.007-0.018,0.009C208.284,53.591,208.29,53.587,208.295,53.584z M207.033,54.938
		c0.001,0.007,0.003,0.015,0.003,0.021C207.036,54.953,207.034,54.945,207.033,54.938z M207.282,55.779
		c0.078,0.158,0.174,0.326,0.288,0.505c0.106-0.097,0.194-0.194,0.272-0.293c-0.079,0.1-0.166,0.196-0.272,0.293
		C207.456,56.105,207.36,55.938,207.282,55.779z M207.103,55.333c0.009,0.029,0.026,0.063,0.036,0.092
		C207.129,55.396,207.112,55.362,207.103,55.333z M207.071,54.594c0,0,0-0.001,0-0.002
		C207.071,54.593,207.071,54.594,207.071,54.594z M208.594,53.653c-0.18,0.829-0.251,1.429-0.501,1.937
		c0.288-0.61,0.21-1.25,0.228-1.901c0.01,0.009,0.028,0.005,0.039,0.009c0.01,0.004,0.02,0.005,0.03,0.007
		c0.049,0.006,0.114-0.009,0.196-0.05C208.59,53.654,208.592,53.654,208.594,53.653L208.594,53.653
		c0.021-0.011,0.033-0.011,0.055-0.023C208.627,53.643,208.615,53.643,208.594,53.653z M207.918,55.886
		c0.047-0.067,0.092-0.137,0.129-0.205C208.008,55.75,207.965,55.818,207.918,55.886z M207.825,53.792
		c0.002-0.001,0.003-0.002,0.004-0.003C207.828,53.79,207.827,53.791,207.825,53.792z M195.329,29.966
		c-5.911,3.331-13.121,2.5-19.728,1.766c-9.187-1.022-17.37-4.5-22.502-12.858c-6.741-10.979-7.001-22.257-1.318-33.754
		c0.342-0.69,0.45-1.494,0.668-2.246c2.785-2.554,4.78-5.818,7.898-8.131c5.416-4.015,11.727-5.414,18.039-6.937
		c14.497,0.335,26.004,5.958,31.867,19.747C217.584,4.794,210.696,21.31,195.329,29.966z"/>
	<path fill-rule="evenodd" clip-rule="evenodd" fill="#FFFFFF" d="M195.721,7.873c-1.829-1.513-3.912-1.873-6.382-0.158
		c-5.024,3.487-10.758,3.674-15.951,0.711c-3.098-1.767-5.074-1.672-7.322,0.764c-0.758,0.819-1.717,1.452-2.504,2.248
		c-5.844,5.906-5.182,9.438,2.42,13.053h0.001c1.536,0.793,2.85,2.127,4.776,1.969c1.93,1.863,4.504,1.436,6.785,1.685
		c8.784,0.954,16.681-1.26,23.409-7.198c2.203-1.944,2.526-3.852,0.894-6.453C200.197,11.862,198.018,9.774,195.721,7.873z"/>
	<path fill-rule="evenodd" clip-rule="evenodd" fill="#FFFFFF" d="M180.774,7.642c7.658,0.206,13.488-6.621,12.637-12.453
		c0.605-7.112-5.767-12.714-12.336-12.862c-6.96-0.158-12.784,5.544-12.95,12.411C167.935,2.662,174.265,7.467,180.774,7.642z"/>
</g>
</svg>
