<?xml version="1.0" encoding="utf-8"?>
<!-- Generator: Adobe Illustrator 16.0.0, SVG Export Plug-In . SVG Version: 6.00 Build 0)  -->
<!DOCTYPE svg PUBLIC "-//W3C//DTD SVG 1.1//EN" "http://www.w3.org/Graphics/SVG/1.1/DTD/svg11.dtd">
<svg version="1.1" id="Layer_1" xmlns="http://www.w3.org/2000/svg" xmlns:xlink="http://www.w3.org/1999/xlink" x="0px" y="0px"
	 width="353px" height="326px" viewBox="0 -153.757 353 326" enable-background="new 0 -153.757 353 326" xml:space="preserve">
<g id="Layer_2">
</g>
<g>
	<path fill-rule="evenodd" clip-rule="evenodd" fill="#FFFFFF" d="M324.694,64.085c0,3.665,0,6.879,0,10.377
		c-1.448,0-2.841-0.021-4.233,0.01c-0.734,0.015-1.475,0.079-2.192,0.212c-1.125,0.209-2.154,0.63-2.047,2.037
		c0.104,1.384,0.524,2.631,2.237,2.667c2.03,0.041,4.054,0.01,6.189,0.01c0,3.585,0,6.84,0,10.389c-2.11,0-4.188-0.016-6.261,0.01
		c-1.021,0.014-1.878,0.263-2.182,1.464c-0.428,1.714-0.033,2.531,1.729,2.708c2.183,0.221,4.389,0.236,6.704,0.343
		c0,3.299,0,6.56,0,10.095c-1.396,0-2.794-0.022-4.188,0.012c-0.843,0.017-1.701,0.046-2.532,0.198
		c-1.258,0.233-1.803,1.18-1.785,2.353c0.02,1.173,0.577,2.136,1.865,2.272c1.518,0.162,3.049,0.188,4.573,0.251
		c0.664,0.032,1.326,0.009,2.089,0.009c0,3.456,0,6.711,0,10.229c-1.872,0-3.673-0.072-5.46,0.036
		c-0.804,0.044-1.844,0.23-2.311,0.762c-0.501,0.569-0.752,1.702-0.553,2.44c0.167,0.64,1.064,1.438,1.729,1.53
		c2.119,0.299,4.279,0.305,6.56,0.431c0,3.022,0,6.057,0,9.321c-0.7,0.034-1.469,0.038-2.226,0.11
		c-1.516,0.144-3.056,0.208-4.535,0.532c-1.057,0.234-2.036,0.849-1.838,2.252c0.176,1.289,0.648,2.227,2.224,2.175
		c2.084-0.063,4.172-0.014,6.383-0.014c0,3.537,0,6.796,0,10.352c-1.382,0-2.775-0.022-4.163,0.008
		c-0.848,0.019-1.706,0.042-2.536,0.194c-1.259,0.229-1.815,1.167-1.801,2.343c0.015,1.169,0.553,2.164,1.846,2.282
		c2.188,0.2,4.389,0.269,6.57,0.391c0,5.709,0,11.4,0,17.36c-63.272,0.2-126.315,0.467-189.356-0.006
		c-0.114-0.202-0.229-0.403-0.344-0.608C197.888,86.001,260.926,0.384,323.965-85.235c0.181,0.07,0.362,0.14,0.544,0.21
		c0,12.93,0,25.859,0,39.057c-1.712,0-3.507-0.025-5.302,0.007c-2.046,0.039-3.047,0.837-3.092,2.379
		c-0.046,1.556,0.94,2.435,2.945,2.527c1.526,0.073,3.063,0.006,4.585,0.131c0.394,0.036,1.053,0.559,1.062,0.87
		c0.082,3.044,0.05,6.094,0.05,9.442c-2.238,0-4.321-0.095-6.393,0.028c-2.005,0.116-2.659,0.924-2.39,2.479
		c0.197,1.148,0.887,1.683,1.992,1.696c2.192,0.022,4.388,0.006,6.686,0.006c0,3.585,0,6.842,0,10.397
		c-1.917,0-3.839-0.14-5.722,0.061c-0.888,0.095-2.006,0.639-2.489,1.346c-0.975,1.434,0.072,3.303,1.888,3.433
		c2.067,0.151,4.157,0.035,6.426,0.035c0,3.41,0.037,6.454-0.06,9.497c-0.008,0.312-0.801,0.818-1.262,0.858
		c-2.133,0.179-4.282,0.231-6.383,0.325c-0.131,0.295-0.243,0.437-0.257,0.589c-0.298,3.879-0.295,3.865,3.549,4.007
		c1.408,0.056,2.812,0.167,4.312,0.258c0,3.172,0,6.211,0,9.513c-1.073,0-2.131-0.064-3.18,0.015
		c-1.232,0.1-2.489,0.206-3.676,0.524c-1.062,0.29-1.979,0.896-1.771,2.303c0.199,1.355,0.786,2.146,2.306,2.097
		c2.077-0.069,4.154-0.018,6.326-0.018c0,3.612,0,6.87,0,10.395c-1.854,0-3.653-0.072-5.443,0.033
		c-0.806,0.047-1.849,0.217-2.317,0.746c-0.506,0.571-0.794,1.729-0.568,2.434c0.225,0.683,1.18,1.501,1.886,1.576
		c2.069,0.203,4.171,0.072,6.401,0.072c0,3.604,0,6.9,0,10.47c-2.081,0-4.106,0.038-6.131-0.009
		c-1.523-0.038-2.27,0.674-2.459,2.149c-0.193,1.504,0.812,2.132,1.94,2.33c2.158,0.373,4.358,0.515,6.669,0.767
		c0,2.964,0,6.002,0,9.357c-0.953,0-1.941-0.01-2.93,0.002c-1.073,0.018-2.155,0.008-3.225,0.092
		c-1.455,0.11-2.341,0.939-2.349,2.405c-0.007,1.451,0.804,2.368,2.3,2.412C320.46,64.128,322.489,64.085,324.694,64.085z
		 M288.055,20.356c-0.145-0.048-0.286-0.099-0.431-0.146c-28.277,38.675-56.558,77.353-85.094,116.389c28.802,0,57.113,0,85.524,0
		C288.055,97.79,288.055,59.071,288.055,20.356z"/>
	<path fill-rule="evenodd" clip-rule="evenodd" fill="#FFFFFF" d="M71.006-20.459c6.077,3.619,11.764,7.011,17.453,10.395
		c0.291,0.175,0.601,0.32,0.904,0.469c3.642,1.799,4.12,1.52,4.785-2.438c0.284-1.686-0.715-2.263-1.902-2.967
		c-4.767-2.835-9.549-5.647-14.205-8.655c-2.784-1.793-2.742-2.273-0.793-4.978c0.793-1.104,1.658-2.155,2.487-3.232
		c0.752-0.979,1.479-1.064,2.584-0.348c3.653,2.378,7.328,4.744,11.117,6.9c3.399,1.936,3.535,1.832,4.549-1.911
		c3.155-11.634,6.211-23.298,9.417-34.919c0.569-2.066,0.029-3.479-1.209-5.096c-2.052-2.683-4-5.494-5.597-8.461
		c-0.986-1.835-1.629-4.041-1.74-6.116c-0.198-3.657-0.368-7.441,0.331-11c1.638-8.308,7.059-13.97,14.416-17.614
		c2.608-1.292,3.404-2.614,3.35-5.405c-0.183-9.125-0.059-18.257-0.051-27.382c0.004-0.964,0.015-1.927,0.067-2.893
		c0.291-5.251,3.953-8.125,9.183-7.216c4.678,0.814,6.074,2.337,6.349,7.292c0.199,3.566,0.27,7.141,0.292,10.71
		c0.047,7.313,0.042,14.627,0.008,21.939c-0.003,1.05,0.29,1.566,1.31,2.001c18.489,7.878,21.934,28.831,10.769,42.465
		c-1.246,1.525-2.833,2.772-4.147,4.25c-0.401,0.45-0.718,1.315-0.573,1.865c3.248,12.422,6.577,24.822,9.848,37.24
		c0.337,1.277,1.07,1.408,1.997,0.925c3.158-1.646,6.31-3.311,9.4-5.082c1.803-1.033,3.486-2.279,5.38-3.534
		c1.981,2.683,3.882,5.208,5.729,7.774c0.741,1.026-0.264,1.464-0.868,1.825c-4.996,3-10.026,5.942-15.047,8.904
		c-0.048,0.031-0.103,0.046-0.157,0.07c-3.554,1.591-3.584,1.735-2.144,5.353c0.53,1.331,1.271,1.832,2.587,1.089
		c5.764-3.246,11.53-6.494,17.278-9.772c0.873-0.498,1.646-1.176,2.537-1.827c0.317,0.36,0.604,0.624,0.819,0.929
		c3.803,5.293,7.576,10.607,11.405,15.878c0.881,1.212,0.781,1.923-0.492,2.83c-8.011,5.718-16.479,10.604-25.665,14.173
		c-1.618,0.628-1.861,1.377-1.467,2.993c6.127,25.012,12.178,50.046,18.286,75.062c0.281,1.156,0.171,2.013-0.567,2.967
		c-3.393,4.397-6.718,8.846-10.071,13.271c-0.369,0.486-0.791,0.938-1.428,1.695c-0.262-0.902-0.457-1.512-0.609-2.126
		c-7.137-28.731-14.27-57.463-21.401-86.191c-0.562-2.271-0.716-2.385-2.999-2.029c-10.207,1.6-20.454,1.249-30.699,0.572
		c-2.309-0.153-4.613-0.519-6.885-0.955c-1.406-0.271-2.004,0.062-2.386,1.493c-4.003,15.036-8.07,30.05-12.116,45.074
		c-0.635,2.353-1.214,4.724-1.877,7.067c-0.265,0.937-0.079,1.302,0.904,1.729c2.848,1.243,4.259,2.573,3.363,5.81
		c-3.798,13.686-7.478,27.412-11.231,41.109c-0.578,2.106-0.948,2.37-3.016,1.834c-7.405-1.907-14.795-3.878-22.167-5.905
		c-2.095-0.577-2.354-1.115-1.793-3.243c3.532-13.416,7.099-26.821,10.66-40.224c0.042-0.164,0.111-0.321,0.164-0.485
		c1.366-4.052,1.679-4.319,5.973-3.903c1.368,0.133,1.334-0.759,1.532-1.506c2.888-10.837,5.763-21.675,8.615-32.522
		c1.625-6.176,3.123-12.387,4.853-18.531c0.519-1.845-0.093-2.708-1.581-3.505c-5.137-2.75-10.306-5.461-15.342-8.391
		c-3.375-1.963-6.539-4.285-9.805-6.43c-0.967-0.636-1.319-1.43-0.611-2.423C63.089-9.392,67.141-15.051,71.006-20.459z
		 M107.801-86.564c-0.05,9.932,7.156,17.349,16.957,17.449c9.34,0.094,16.89-7.569,16.997-17.158
		c0.091-8.146-6.814-17.218-16.989-17.149C114.713-103.356,107.763-95.371,107.801-86.564z M124.122-58.406
		c-0.162,0.02-0.323,0.037-0.485,0.055c-0.211,0.631-0.455,1.252-0.626,1.893c-2.154,8.042-4.344,16.076-6.418,24.137
		c-1.025,3.996-1.841,8.046-2.734,12.076c-0.166,0.736-0.34,1.527,0.864,1.537c5.547,0.044,11.098,0.234,16.639,0.097
		c2.929-0.072,3.026-0.349,2.322-3.231c-1.977-8.071-4.006-16.128-6.09-24.169C126.519-50.166,125.283-54.273,124.122-58.406z
		 M139.042-2.641c-0.493-1.868-0.938-3.313-1.243-4.787c-0.225-1.089-0.761-1.24-1.793-1.158
		c-7.804,0.601-15.607,0.721-23.402-0.171c-2.329-0.269-2.765,0.098-3.081,2.437c-0.074,0.559-0.019,1.136-0.098,1.694
		c-0.178,1.255,0.48,1.751,1.604,1.852c4.508,0.4,9.014,1.094,13.523,1.111C129.269-1.642,133.99-2.273,139.042-2.641z"/>
	<path fill-rule="evenodd" clip-rule="evenodd" fill="#FFFFFF" d="M52.451,170.391c1.19-6.575,2.268-12.642,3.387-18.702
		c0.624-3.395,1.21-6.802,2.027-10.151c0.4-1.642,0.081-2.757-1.31-3.581c-1.539-0.915-1.853-2.037-1.264-3.798
		c1.111-3.323,1.956-6.734,2.853-10.127c0.277-1.047,0.801-1.385,1.833-1.107c4.151,1.115,8.308,2.225,12.469,3.299
		c1.184,0.307,1.557,0.964,1.241,2.115c-1.021,3.708-1.948,7.448-3.102,11.113c-0.23,0.725-1.266,1.596-2.011,1.678
		c-1.77,0.192-2.594,1.163-3.12,2.648c-1.783,5.073-3.548,10.149-5.355,15.217c-1.347,3.786-2.688,7.58-4.18,11.314
		c-0.263,0.66-1.223,1.377-1.913,1.427C53.485,171.774,52.887,170.798,52.451,170.391z"/>
</g>
</svg>
