<?xml version="1.0" encoding="utf-8"?>
<!-- Generator: Adobe Illustrator 16.0.0, SVG Export Plug-In . SVG Version: 6.00 Build 0)  -->
<!DOCTYPE svg PUBLIC "-//W3C//DTD SVG 1.1//EN" "http://www.w3.org/Graphics/SVG/1.1/DTD/svg11.dtd">
<svg version="1.1" id="Layer_1" xmlns="http://www.w3.org/2000/svg" xmlns:xlink="http://www.w3.org/1999/xlink" x="0px" y="0px"
	 width="353px" height="326px" viewBox="0 0 353 326" enable-background="new 0 0 353 326" xml:space="preserve">
<g id="Layer_2_1_" display="none">
	<rect display="inline" fill="#231F20" width="353" height="326"/>
</g>
<g id="Layer_1_1_">
	<g id="Layer_2">
	</g>
	<g>
		<path d="M232,832c1.499,0.017,2.998,0.048,4.496,0.048c330.336,0.002,660.672,0.002,991.007,0c1.499,0,2.998-0.031,4.497-0.048
			c0,26.655,0,53.311,0,79.982c-333.333,0-666.667,0-1000,0C232,885.311,232,858.655,232,832z M374.371,865.29
			c-0.506-1.175-0.743-2.975-1.473-3.204c-2.929-0.919-6.228-2.301-8.966-1.671c-2.309,0.531-4.882,3.274-5.808,5.639
			c-1.271,3.242,1.272,5.563,4.3,6.798c1.99,0.813,4.229,1.114,6.074,2.148c1.4,0.786,3.506,2.707,3.266,3.52
			c-0.461,1.554-2.208,3.491-3.717,3.793c-2.469,0.493-5.173-0.293-7.781-0.331c-0.938-0.015-1.886,0.569-2.829,0.881
			c0.602,0.749,1.187,2.129,1.805,2.145c4.047,0.099,8.313,0.615,12.063-0.495c1.962-0.58,4.074-4.145,4.18-6.447
			c0.09-1.997-2.181-4.631-4.099-6.043c-2.038-1.504-4.995-1.695-7.342-2.875c-1.103-0.555-2.509-2.22-2.348-3.129
			c0.188-1.065,1.977-2.669,2.99-2.612C367.561,863.563,370.392,864.45,374.371,865.29z M432.512,872.588
			c3.005-2.043,5.781-3.931,8.56-5.818c-0.471-0.559-0.939-1.115-1.41-1.675c-3.131,2.211-6.26,4.421-9.488,6.701
			c-1.521-11.331-1.521-11.331-4.158-11.12c0,4.117,0,8.262,0,12.404c0,4.243,0,8.487,0,13.164c6.689-1.021,1.365-7.141,4.882-8.932
			c4.202,1.823,3.644,9.712,11.012,8.462c-1.514-2.165-2.722-3.919-3.955-5.654C436.611,878.236,435.246,876.37,432.512,872.588z
			 M406.479,875.776c-0.102-5.938-3.639-9.824-8.963-9.849c-5.496-0.023-9.129,4.107-9.03,10.272
			c0.094,5.92,3.654,9.834,8.961,9.848C402.947,886.063,406.585,881.926,406.479,875.776z M418.051,865.926
			c-0.275-0.336-0.553-0.673-0.828-1.01c-2.432,1.932-6.272,3.463-6.961,5.889c-1.014,3.581-0.852,8.376,0.861,11.545
			c1.171,2.166,5.794,2.61,8.975,3.432c0.696,0.179,1.824-1.318,2.754-2.044c-1.031-0.357-2.12-1.132-3.086-0.999
			c-4.063,0.557-6.366-1.188-7.243-5.025c-1.204-5.271,1.862-8.692,7.271-8.396c0.994,0.055,2.033-0.706,3.052-1.091
			c-0.938-0.71-1.817-1.521-2.835-2.086C419.48,865.844,418.711,865.982,418.051,865.926z M272.718,883.75
			c-3.192-8.706-5.995-16.352-8.8-23.998c-0.6,0.231-1.2,0.464-1.801,0.695c2.65,7.559,5.256,15.135,8,22.658
			c0.398,1.089,1.468,1.932,2.227,2.889c0.926-0.96,2.277-1.76,2.705-2.904c2.547-6.825,4.902-13.724,7.256-20.619
			c0.236-0.69,0.031-1.531,0.031-2.304c-0.33-0.063-0.662-0.128-0.992-0.191C278.615,867.495,275.887,875.015,272.718,883.75z
			 M284.314,877.045c2.168,0,4.299,0.045,6.428-0.012c2.188-0.06,4.369-0.217,6.496-0.328c-0.235-8.242-4.127-12.206-9.531-10.381
			c-4.046,1.367-6.387,6.021-5.777,11.492c0.512,4.59,3.512,7.934,7.928,8.09c2.345,0.084,4.724-0.813,7.086-1.269
			c-0.078-0.405-0.156-0.813-0.234-1.219C287.354,884.949,285.052,883.828,284.314,877.045z M344.005,876.025
			c-0.021-6.04-3.841-10.192-9.255-10.06c-5.197,0.128-8.75,4.203-8.756,10.045c-0.007,6.07,3.748,10.143,9.242,10.023
			C340.463,885.922,344.025,881.855,344.005,876.025z M386.988,868.068c-0.105-0.521-0.211-1.041-0.316-1.563
			c-1.502-0.39-3.005-0.778-4.59-1.188c0-1.468,0.172-2.666-0.07-3.776c-0.127-0.584-0.966-1.384-1.507-1.403
			c-0.55-0.02-1.624,0.804-1.622,1.255c0.012,6.813-0.146,13.653,0.517,20.411c0.149,1.526,3.182,2.917,5.094,4.008
			c0.412,0.235,1.717-1.091,2.961-1.936c-5.963-2.979-6.263-3.999-4.92-14.4C384.026,869.004,385.508,868.536,386.988,868.068z
			 M1135.191,875.568c0.438-0.32,0.878-0.642,1.316-0.961c-1.425-1.194-2.891-3.37-4.264-3.313
			c-1.454,0.062-3.189,2.022-4.116,3.566c-0.817,1.362-1.008,3.314-0.893,4.967c0.104,1.478,0.608,3.574,1.646,4.178
			c1.308,0.761,3.607,0.832,4.963,0.16c1.06-0.524,1.649-2.591,1.86-4.058C1135.916,878.65,1135.393,877.086,1135.191,875.568z
			 M315.127,884.102c-10.009-0.155-12.68-1.875-12.837-7.782c-0.161-6.096,2.446-7.968,11.794-8.469
			c-3.819-2.755-8.227-2.407-11.24,0.884c-3.32,3.625-3.464,10.414-0.304,14.302C305.293,886.421,309.994,886.99,315.127,884.102z
			 M1091.334,884.77c0.443,0.012,0.887,0.021,1.33,0.031c0.111-1.417-0.085-2.957,0.42-4.216c0.539-1.343,1.741-2.419,2.653-3.611
			c0.736,1.194,1.723,2.311,2.143,3.606c0.437,1.344,0.322,2.865,0.449,4.31c0.261-0.041,0.521-0.082,0.782-0.123
			c0.85-2.679,1.698-5.357,2.548-8.036c0.597,0.135,1.193,0.27,1.792,0.402c0.315,2.576,0.633,5.151,0.948,7.728
			c0.505-0.021,1.011-0.04,1.516-0.062c-0.124-2.604-0.009-5.259-0.509-7.791c-0.161-0.813-1.939-1.83-2.993-1.849
			c-3.757-0.065-7.521,0.259-11.079,0.426C1091.334,878.725,1091.334,881.747,1091.334,884.77z M1203.069,877.996
			c-0.389-3.127-0.501-6.894-5.121-6.925c-4.273-0.03-4.907,3.37-4.945,6.693c-0.039,3.477,0.398,7.097,4.974,7.158
			C1202.278,884.983,1202.683,881.508,1203.069,877.996z M1161.08,877.622c-0.541-2.789-0.576-6.46-4.914-6.55
			c-4.596-0.097-5.146,3.447-5.158,6.967c-0.012,3.329,0.537,6.749,4.748,6.882C1160.342,885.065,1160.732,881.41,1161.08,877.622z
			 M1149.058,878.131c-0.353-3.341-0.565-7.073-5.165-7.057c-4.249,0.016-4.866,3.406-4.882,6.742
			c-0.015,3.481,0.429,7.101,5.011,7.109C1148.293,884.936,1148.68,881.439,1149.058,878.131z M324.271,885.618
			c-5.357-5.42-5.288-15.218,0.223-19.69c-6.236,1.336-2.869-4.124-5.019-5.803C315.664,868.104,318.238,884.124,324.271,885.618z
			 M1125.564,884.825c0.092-0.313,0.183-0.625,0.272-0.938c-2.403-0.417-4.808-0.833-7.229-1.253
			c1.82-3.769,9.408-4.503,5.019-10.285c-2.018-2.655-5.066-1.71-7.279,0.787c2.329,0.35,4.237,0.636,6.146,0.92
			c-1.194,1.716-2.384,3.435-3.585,5.144c-1.139,1.615-2.289,3.22-4.002,5.626C1119.377,884.825,1122.471,884.825,1125.564,884.825z
			 M976.667,879.792c0.257-0.389,0.513-0.778,0.771-1.167c-1.54-1.206-3.005-3.221-4.643-3.373
			c-1.426-0.133-4.164,1.689-4.325,2.912c-0.252,1.901,0.677,4.589,2.084,5.87c1.04,0.947,3.638,0.187,5.54,0.187
			c-0.061-0.223-0.121-0.443-0.181-0.666c-1.974-0.64-3.945-1.278-5.919-1.919c0.136-0.458,0.271-0.916,0.406-1.374
			C972.49,880.105,974.579,879.948,976.667,879.792z M1015.414,882.793c-0.04,0.587-0.081,1.174-0.121,1.761
			c2.436-0.225,6.043,0.493,7.108-0.832c5.243-6.525-4.914-5.361-5.339-10.106c2.013-0.247,3.93-0.483,6.339-0.779
			c-2.505-2.549-5.413-2.771-7.031-0.538c-4.754,6.558,4.83,5.206,5.537,10.119C1019.69,882.545,1017.552,882.669,1015.414,882.793z
			 M1166.067,876.646c1.491,1.896,2.59,3.29,3.688,4.687c-2.03,0.676-4.062,1.351-6.423,2.136c2.491,1.913,5.099,2.471,7.358,0.022
			c2.812-3.046,0.652-5.348-1.909-7.21c0.965-1.665,1.829-3.157,2.858-4.938c-2.839,0-5.127,0-7.413,0
			c-0.049,0.264-0.096,0.527-0.144,0.791c1.251,0.408,2.503,0.816,3.997,1.304C1167.257,874.752,1166.569,875.848,1166.067,876.646z
			 M960.158,885.149c0.592-0.014,1.183-0.025,1.772-0.038c1.589-4.525,3.178-9.052,4.767-13.575
			c-0.518-0.191-1.032-0.383-1.548-0.574c-1.282,3.206-2.564,6.413-4.19,10.479c-1.6-4.126-2.845-7.339-4.09-10.552
			c-0.535,0.231-1.069,0.463-1.604,0.694C956.896,876.106,958.527,880.628,960.158,885.149z M1056.277,878.404
			c-0.281-2.976-0.483-5.115-0.688-7.256c-0.395,0.044-0.789,0.088-1.184,0.132c0,4.489,0,8.979,0,13.47
			c0.307,0.05,0.613,0.1,0.921,0.149c0.39-1.528,0.779-3.058,1.271-4.986c1.625,2.053,2.927,3.694,4.314,5.447
			c-0.343-3.704-0.631-6.823-0.919-9.944C1059.357,875.928,1058.087,876.949,1056.277,878.404z M347.506,867.282
			c0,5.518,0,11.989,0,18.462c0.479-0.003,0.959-0.006,1.438-0.009c0-3.53,0.44-7.132-0.104-10.575
			c-0.786-4.959,3.194-6.06,7.17-8.764C352.337,866.779,350.035,867.019,347.506,867.282z M999.851,885.775
			c0.772-0.013,1.547-0.023,2.318-0.035c1.251-1.981,3.711-4.164,3.425-5.891c-0.307-1.841-3.063-4.208-5.026-4.506
			c-1.262-0.189-4.189,2.9-4.253,4.602C996.242,881.842,998.568,883.828,999.851,885.775z M1082.705,885.738
			c0.771,0.012,1.541,0.023,2.311,0.036c1.303-1.945,3.811-4.054,3.575-5.791c-0.249-1.842-2.938-4.3-4.88-4.632
			c-1.276-0.219-4.286,2.772-4.395,4.463C1079.197,881.71,1081.473,883.757,1082.705,885.738z M1042.707,881.021
			c-0.017-0.763-0.034-1.523-0.052-2.285c-1.979-1.243-4.025-3.536-5.915-3.413c-1.67,0.107-4.605,3.135-4.396,4.467
			c0.303,1.924,2.79,4.624,4.624,4.863C1038.694,884.879,1040.78,882.343,1042.707,881.021z M1179.948,873.202
			c-1.79,4.129-3.357,7.744-4.925,11.357c0.507,0.222,1.014,0.441,1.521,0.662c2.109-4.504,4.219-9.009,6.411-13.688
			c-3.314,0-5.989,0-8.663,0c-0.014,0.282-0.027,0.564-0.04,0.849C1176.005,872.635,1177.757,872.887,1179.948,873.202z
			 M1183.852,874.168c3.734,1.595,4.098,6.112,1.413,10.621c1.852,0,3.599,0,4.457,0c-0.399-4.662-0.786-9.158-1.251-14.554
			C1186.654,871.782,1185.484,872.777,1183.852,874.168z M1051.716,875.643c-2.464-1.151-5.315-1.216-6.707,1.752
			c-0.763,1.631-0.413,4.66,0.691,6.084c1.729,2.229,4.472,2.313,6.006,0.834c-1.938-1.51-3.78-2.942-5.622-4.377
			C1047.847,878.592,1049.609,877.248,1051.716,875.643z M1076.628,875.736c-1.733-1.313-4.47-1.53-6.021,0.919
			c-1.036,1.635-1.198,4.934-0.2,6.5c1.671,2.622,4.584,2.646,6.267,1.124c-1.923-1.498-3.757-2.928-5.592-4.355
			C1072.855,878.584,1074.63,877.244,1076.628,875.736z M986.945,884.15c-2.188-1.357-4.01-2.488-5.831-3.619
			c1.752-1.6,3.505-3.197,5.362-4.895c-1.963-1.401-4.684-1.194-6.156,1.299c-0.93,1.572-0.97,4.646-0.006,6.146
			C982.029,885.753,984.868,885.678,986.945,884.15z M991.82,873.601c-3.604,4.78-2.139,10.047,1.367,10.833
			C992.733,880.829,992.276,877.215,991.82,873.601z M1028.017,873.77c-0.493,0.039-0.987,0.078-1.481,0.116
			c-2.276,5.096-0.645,10.165,2.438,10.428C1028.657,880.827,1028.337,877.299,1028.017,873.77z M1008.311,884.764
			c0.242-0.01,0.483-0.021,0.726-0.029c1.103-3.134,2.205-6.267,3.258-9.261c-1.114,0-2.623,0-3.982,0
			C1008.311,878.659,1008.311,881.711,1008.311,884.764z M1113.958,871.51c-0.519-0.136-1.036-0.271-1.554-0.406
			c-1.496,4.689-2.991,9.381-4.486,14.07c0.484,0.15,0.97,0.3,1.455,0.45C1110.901,880.919,1112.43,876.215,1113.958,871.51z"/>
		<path d="M620.917,489.076c0.001-59.484-0.006-118.969,0.003-178.454c0.005-32.886,20.047-58.136,52.138-65.356
			c3.154-0.711,3.557-2.146,3.545-4.75c-0.058-13.996-0.026-27.992-0.026-41.988c-0.001-51.986-0.019-103.974,0.037-155.96
			c0.004-3.033-0.128-5.195-3.839-6.227c-4.121-1.144-5.862-4.759-5.868-8.954c-0.038-23.66-0.096-47.321,0.039-70.98
			c0.035-6.223,3.694-9.57,10.283-9.675c10.661-0.169,21.327-0.07,31.99-0.071c25.16-0.004,50.32-0.013,75.481,0.009
			c9.896,0.009,12.658,2.837,12.663,12.848c0.012,21.66-0.071,43.321,0.07,64.981c0.042,6.276-1.148,11.269-8.314,12.725
			c-0.768,0.155-1.555,1.483-1.836,2.418c-0.322,1.071-0.101,2.311-0.101,3.477c-0.001,64.983,0.047,129.967-0.099,194.949
			c-0.011,4.629,0.952,6.393,5.954,7.271c28.34,4.974,49.745,31.058,49.766,59.953c0.072,103.139,0.148,206.276,0.191,309.415
			c0.009,20.493-0.101,40.986-0.194,61.479c-0.1,21.571-18.331,40.621-39.93,40.755c-46.486,0.283-92.977,0.311-139.462-0.008
			c-23.572-0.161-42.467-20.548-42.481-44.899C620.893,611.045,620.917,550.061,620.917,489.076z M823.764,628.365
			c-2.751,0-4.882,0-7.013,0c-29.495-0.002-58.99-0.005-88.485-0.004c-11.032,0-13.9-2.83-13.901-13.886
			c-0.005-87.483-0.001-174.97,0.011-262.454c0.001-9.854,3.021-12.819,12.847-12.814c30.328,0.014,60.656,0.021,90.984,0.009
			c1.754-0.001,3.508-0.206,5.293-0.317c0-13.518,1.118-26.597-0.257-39.406c-2.188-20.381-21.025-36.247-41.274-36.54
			c-10.991-0.159-13.718-2.972-13.717-14.103c0.004-68.322,0.006-136.644-0.008-204.966c-0.001-2.08-0.188-4.16-0.29-6.301
			c-24.332,0-48.087,0-72.518,0c0,2.553,0,4.831,0,7.11c0,66.821,0,133.644-0.003,200.466c0,2.5,0.082,5.004-0.038,7.497
			c-0.315,6.613-3.745,9.966-10.386,10.283c-26.427,1.266-45.266,20.979-45.268,47.465c-0.013,119.646,0.132,239.295-0.162,358.939
			c-0.041,16.641,12.011,29.229,28.981,29.005c43.151-0.567,86.315-0.187,129.476-0.198c1.997,0,4.01-0.002,5.987-0.235
			c9.923-1.172,19.25-9.857,19.589-19.762C824.17,661.86,823.764,645.533,823.764,628.365z M686.017,18.06
			c30.993,0,61.396,0,92.093,0c0-17.531,0-34.763,0-52.331c-30.766,0-61.304,0-92.093,0C686.017-16.776,686.017,0.461,686.017,18.06
			z"/>
		<path fill="#FFFFFF" d="M374.371,865.29c-3.979-0.84-6.812-1.729-9.682-1.887c-1.016-0.057-2.804,1.547-2.991,2.612
			c-0.161,0.909,1.245,2.574,2.348,3.128c2.347,1.181,5.304,1.372,7.342,2.875c1.918,1.413,4.188,4.046,4.099,6.043
			c-0.104,2.305-2.218,5.868-4.18,6.448c-3.752,1.11-8.018,0.593-12.063,0.495c-0.618-0.016-1.203-1.396-1.804-2.145
			c0.942-0.312,1.891-0.896,2.828-0.882c2.608,0.039,5.313,0.825,7.781,0.332c1.509-0.302,3.256-2.239,3.717-3.793
			c0.24-0.813-1.864-2.732-3.266-3.52c-1.846-1.034-4.084-1.337-6.074-2.148c-3.026-1.233-5.569-3.556-4.3-6.798
			c0.926-2.364,3.499-5.106,5.808-5.639c2.738-0.63,6.037,0.752,8.966,1.671C373.628,862.315,373.865,864.115,374.371,865.29z"/>
		<path fill="#FFFFFF" d="M432.512,872.588c2.734,3.782,4.101,5.648,5.439,7.532c1.233,1.735,2.441,3.489,3.955,5.654
			c-7.368,1.25-6.81-6.639-11.017-8.458c-3.512,1.786,1.813,7.906-4.877,8.928c0-4.677,0-8.921,0-13.164c0-4.145,0-8.287,0-12.404
			c2.638-0.211,2.638-0.211,4.158,11.12c3.229-2.28,6.357-4.49,9.488-6.701c0.471,0.56,0.939,1.116,1.41,1.674
			C438.293,868.657,435.517,870.545,432.512,872.588z"/>
		<path fill="#FFFFFF" d="M406.479,875.776c0.106,6.148-3.53,10.286-9.032,10.271c-5.307-0.014-8.867-3.928-8.961-9.848
			c-0.099-6.165,3.534-10.297,9.03-10.272C402.84,865.952,406.377,869.839,406.479,875.776z M391.98,876.254
			c0.434,3.228,1.287,6.609,5.62,6.531c3.949-0.072,5.226-3.104,5.279-6.547c0.06-3.607-1.047-6.905-5.279-7.04
			C393.266,869.061,392.35,872.426,391.98,876.254z"/>
		<path fill="#FFFFFF" d="M418.051,865.926c0.66,0.058,1.431-0.082,1.959,0.213c1.018,0.565,1.897,1.376,2.835,2.086
			c-1.019,0.385-2.058,1.146-3.052,1.091c-5.408-0.295-8.476,3.125-7.271,8.396c0.877,3.837,3.181,5.582,7.243,5.025
			c0.966-0.133,2.055,0.642,3.086,0.999c-0.93,0.726-2.058,2.223-2.754,2.044c-3.181-0.82-7.804-1.266-8.975-3.432
			c-1.713-3.169-1.875-7.964-0.861-11.545c0.688-2.426,4.529-3.957,6.961-5.889C417.498,865.253,417.774,865.59,418.051,865.926z"/>
		<path fill="#FFFFFF" d="M272.718,883.75c3.169-8.735,5.897-16.255,8.626-23.774c0.33,0.063,0.662,0.128,0.992,0.191
			c0,0.771,0.205,1.612-0.031,2.304c-2.354,6.896-4.709,13.794-7.256,20.619c-0.428,1.146-1.779,1.944-2.705,2.904
			c-0.759-0.957-1.828-1.8-2.227-2.889c-2.744-7.523-5.35-15.101-8-22.658c0.601-0.231,1.201-0.464,1.801-0.695
			C266.723,867.398,269.525,875.044,272.718,883.75z"/>
		<path fill="#FFFFFF" d="M284.314,877.045c0.736,6.783,3.039,7.904,12.394,6.375c0.078,0.406,0.156,0.813,0.233,1.219
			c-2.361,0.454-4.74,1.353-7.084,1.269c-4.416-0.156-7.418-3.5-7.928-8.09c-0.609-5.472,1.73-10.125,5.776-11.492
			c5.403-1.825,9.296,2.139,9.53,10.381c-2.125,0.111-4.309,0.27-6.495,0.328C288.613,877.09,286.482,877.045,284.314,877.045z
			 M284.105,874.795c3.761,0,7.283,0,11.093,0c-0.279-3.807-1.11-6.799-5.263-6.801
			C285.691,867.992,284.611,871.072,284.105,874.795z"/>
		<path fill="#FFFFFF" d="M344.005,876.025c0.021,5.83-3.542,9.896-8.769,10.01c-5.494,0.118-9.249-3.953-9.242-10.023
			c0.006-5.842,3.559-9.917,8.756-10.045C340.164,865.833,343.984,869.985,344.005,876.025z M334.82,884.112
			c4.24,0.075,6.985-2.928,7.114-7.78c0.135-5.032-2.69-8.406-7.026-8.395c-4.114,0.014-6.81,3.188-6.834,8.053
			C328.05,880.864,330.688,884.039,334.82,884.112z"/>
		<path fill="#FFFFFF" d="M386.988,868.068c-1.48,0.468-2.962,0.936-4.455,1.407c-1.343,10.401-1.043,11.423,4.92,14.4
			c-1.244,0.845-2.549,2.171-2.961,1.935c-1.912-1.09-4.943-2.479-5.094-4.007c-0.662-6.758-0.504-13.6-0.517-20.411
			c-0.002-0.451,1.072-1.273,1.622-1.255c0.541,0.021,1.38,0.819,1.507,1.403c0.242,1.11,0.07,2.31,0.07,3.776
			c1.585,0.409,3.088,0.799,4.59,1.188C386.777,867.027,386.883,867.548,386.988,868.068z"/>
		<path fill="#FFFFFF" d="M1135.191,875.568c0.201,1.518,0.725,3.082,0.515,4.54c-0.211,1.466-0.802,3.531-1.86,4.057
			c-1.354,0.672-3.655,0.601-4.963-0.16c-1.037-0.604-1.543-2.7-1.646-4.178c-0.115-1.651,0.073-3.604,0.893-4.967
			c0.927-1.544,2.662-3.506,4.116-3.566c1.373-0.057,2.839,2.119,4.264,3.313C1136.069,874.928,1135.631,875.248,1135.191,875.568z"
			/>
		<path fill="#FFFFFF" d="M315.127,884.102c-5.133,2.89-9.834,2.319-12.587-1.065c-3.16-3.887-3.017-10.677,0.304-14.302
			c3.014-3.291,7.421-3.639,11.24-0.884c-9.348,0.501-11.955,2.373-11.794,8.469C302.447,882.227,305.118,883.945,315.127,884.102z"
			/>
		<path fill="#FFFFFF" d="M1091.334,884.77c0-3.021,0-6.045,0-9.185c3.559-0.167,7.322-0.491,11.079-0.426
			c1.054,0.019,2.832,1.036,2.993,1.849c0.5,2.532,0.385,5.187,0.509,7.791c-0.505,0.021-1.01,0.041-1.515,0.062
			c-0.316-2.575-0.634-5.15-0.949-7.728c-0.598-0.134-1.195-0.269-1.792-0.402c-0.849,2.679-1.698,5.357-2.547,8.036
			c-0.261,0.041-0.522,0.082-0.783,0.123c-0.127-1.443-0.014-2.966-0.449-4.31c-0.42-1.297-1.405-2.412-2.143-3.606
			c-0.912,1.192-2.114,2.27-2.653,3.611c-0.505,1.259-0.309,2.799-0.42,4.216C1092.221,884.79,1091.777,884.78,1091.334,884.77z"/>
		<path fill="#FFFFFF" d="M1203.069,877.996c-0.388,3.512-0.791,6.987-5.094,6.928c-4.574-0.063-5.013-3.683-4.974-7.158
			c0.038-3.323,0.672-6.725,4.945-6.693C1202.568,871.104,1202.682,874.869,1203.069,877.996z M1202.068,877.984
			c-1.624-2.015-2.815-3.491-4.006-4.97c-1.011,1.589-2.861,3.205-2.809,4.755c0.063,1.77,1.822,3.479,2.844,5.214
			C1199.275,881.502,1200.451,880.021,1202.068,877.984z"/>
		<path fill="#FFFFFF" d="M1161.08,877.622c-0.348,3.788-0.738,7.443-5.324,7.299c-4.211-0.133-4.76-3.553-4.748-6.882
			c0.013-3.52,0.563-7.063,5.158-6.967C1160.504,871.162,1160.539,874.833,1161.08,877.622z M1160.071,877.98
			c-1.623-2.025-2.804-3.498-3.984-4.972c-1.016,1.584-2.874,3.195-2.823,4.743c0.06,1.774,1.812,3.494,2.827,5.237
			C1157.27,881.508,1158.446,880.025,1160.071,877.98z"/>
		<path fill="#FFFFFF" d="M1149.058,878.131c-0.378,3.31-0.765,6.805-5.036,6.796c-4.582-0.01-5.024-3.628-5.011-7.109
			c0.016-3.335,0.634-6.728,4.882-6.742C1148.491,871.058,1148.705,874.79,1149.058,878.131z M1148.303,878.038
			c-1.877-2.074-3.21-3.548-4.542-5.021c-0.905,1.528-2.612,3.109-2.516,4.571c0.123,1.853,1.713,3.605,2.671,5.401
			C1145.154,881.592,1146.393,880.194,1148.303,878.038z"/>
		<path fill="#FFFFFF" d="M324.271,885.618c-6.033-1.494-8.607-17.517-4.796-25.493c2.148,1.679-1.219,7.139,5.019,5.803
			C318.983,870.4,318.914,880.198,324.271,885.618z"/>
		<path fill="#FFFFFF" d="M1125.564,884.825c-3.095,0-6.188,0-10.658,0c1.713-2.406,2.863-4.011,4.002-5.626
			c1.202-1.709,2.391-3.428,3.585-5.144c-1.909-0.284-3.817-0.57-6.146-0.92c2.213-2.497,5.263-3.442,7.279-0.787
			c4.391,5.782-3.197,6.518-5.019,10.285c2.423,0.42,4.826,0.836,7.229,1.253C1125.747,884.2,1125.656,884.513,1125.564,884.825z"/>
		<path fill="#FFFFFF" d="M976.667,879.792c-2.088,0.156-4.177,0.313-6.266,0.47c-0.137,0.458-0.271,0.916-0.407,1.374
			c1.974,0.641,3.946,1.279,5.919,1.919c0.06,0.223,0.12,0.443,0.181,0.666c-1.902,0-4.5,0.762-5.54-0.187
			c-1.406-1.281-2.336-3.969-2.084-5.87c0.161-1.223,2.899-3.045,4.325-2.912c1.639,0.152,3.103,2.167,4.643,3.373
			C977.18,879.014,976.924,879.403,976.667,879.792z"/>
		<path fill="#FFFFFF" d="M1015.414,882.793c2.138-0.124,4.276-0.248,6.493-0.377c-0.707-4.913-10.291-3.563-5.537-10.119
			c1.618-2.231,4.526-2.011,7.031,0.538c-2.409,0.296-4.326,0.532-6.339,0.779c0.425,4.745,10.582,3.581,5.339,10.106
			c-1.065,1.325-4.673,0.607-7.108,0.832C1015.333,883.967,1015.374,883.38,1015.414,882.793z"/>
		<path fill="#FFFFFF" d="M1166.067,876.646c0.502-0.8,1.188-1.896,2.014-3.207c-1.494-0.487-2.746-0.896-3.997-1.305
			c0.048-0.264,0.095-0.526,0.143-0.791c2.287,0,4.575,0,7.414,0c-1.029,1.779-1.895,3.271-2.858,4.938
			c2.563,1.862,4.721,4.164,1.909,7.21c-2.261,2.448-4.867,1.891-7.358-0.022c2.361-0.785,4.393-1.46,6.423-2.136
			C1168.657,879.938,1167.561,878.543,1166.067,876.646z"/>
		<path fill="#FFFFFF" d="M960.158,885.149c-1.631-4.521-3.262-9.044-4.894-13.564c0.534-0.231,1.068-0.463,1.604-0.694
			c1.245,3.213,2.49,6.426,4.09,10.552c1.626-4.066,2.908-7.273,4.19-10.479c0.516,0.191,1.03,0.383,1.548,0.574
			c-1.589,4.523-3.178,9.05-4.767,13.575C961.341,885.124,960.75,885.137,960.158,885.149z"/>
		<path fill="#FFFFFF" d="M1056.277,878.404c1.81-1.455,3.08-2.478,3.718-2.988c0.288,3.121,0.576,6.24,0.919,9.944
			c-1.389-1.753-2.689-3.396-4.314-5.447c-0.491,1.93-0.882,3.458-1.271,4.986c-0.308-0.051-0.614-0.101-0.921-0.149
			c0-4.49,0-8.979,0-13.47c0.395-0.044,0.789-0.088,1.184-0.132C1055.794,873.289,1055.996,875.43,1056.277,878.404z"/>
		<path fill="#FFFFFF" d="M347.506,867.282c2.529-0.265,4.831-0.503,8.503-0.886c-3.976,2.704-7.956,3.805-7.17,8.764
			c0.546,3.443,0.104,7.045,0.104,10.575c-0.479,0.003-0.958,0.006-1.438,0.009C347.506,879.271,347.506,872.8,347.506,867.282z"/>
		<path fill="#FFFFFF" d="M999.851,885.775c-1.281-1.947-3.607-3.935-3.536-5.83c0.063-1.7,2.991-4.791,4.253-4.602
			c1.965,0.298,4.721,2.665,5.026,4.506c0.286,1.727-2.174,3.908-3.425,5.891C1001.396,885.752,1000.623,885.764,999.851,885.775z
			 M1000.612,884.426c1.57-1.957,3.184-3.108,3.056-4.014c-0.179-1.259-1.661-2.333-2.585-3.485
			c-1.002,0.893-2.743,1.727-2.819,2.69C998.168,880.84,999.426,882.168,1000.612,884.426z"/>
		<path fill="#FFFFFF" d="M1082.705,885.738c-1.232-1.981-3.508-4.028-3.388-5.924c0.106-1.689,3.116-4.682,4.394-4.463
			c1.941,0.332,4.631,2.79,4.88,4.632c0.234,1.737-2.272,3.846-3.575,5.791C1084.246,885.763,1083.476,885.75,1082.705,885.738z
			 M1083.615,875.46c-1.226,2.36-2.449,3.667-2.358,4.876c0.072,0.979,1.729,1.837,2.685,2.748c0.972-1.064,2.627-2.075,2.717-3.209
			C1086.741,878.803,1085.181,877.602,1083.615,875.46z"/>
		<path fill="#FFFFFF" d="M1042.707,881.021c-1.927,1.32-4.013,3.856-5.738,3.632c-1.834-0.239-4.322-2.939-4.624-4.863
			c-0.21-1.332,2.727-4.358,4.396-4.467c1.89-0.123,3.937,2.17,5.915,3.413C1042.673,879.498,1042.689,880.26,1042.707,881.021z
			 M1036.827,875.457c-1.331,2.298-2.751,3.654-2.558,4.713c0.205,1.114,1.954,1.945,3.027,2.899
			c0.854-1.014,2.397-2.039,2.378-3.035C1039.653,878.842,1038.295,877.675,1036.827,875.457z"/>
		<path fill="#FFFFFF" d="M1179.948,873.202c-2.191-0.315-3.943-0.567-5.695-0.819c0.013-0.283,0.026-0.565,0.04-0.849
			c2.674,0,5.35,0,8.663,0c-2.192,4.68-4.302,9.185-6.411,13.688c-0.508-0.221-1.015-0.44-1.521-0.661
			C1176.591,880.946,1178.158,877.331,1179.948,873.202z"/>
		<path fill="#FFFFFF" d="M1183.852,874.168c1.634-1.391,2.804-2.386,4.619-3.933c0.465,5.396,0.852,9.892,1.251,14.554
			c-0.858,0-2.605,0-4.457,0C1187.948,880.28,1187.586,875.763,1183.852,874.168z"/>
		<path fill="#FFFFFF" d="M1051.716,875.643c-2.105,1.605-3.869,2.949-5.632,4.293c1.842,1.435,3.684,2.867,5.622,4.377
			c-1.534,1.479-4.276,1.396-6.006-0.834c-1.104-1.424-1.454-4.453-0.691-6.084C1046.399,874.427,1049.252,874.49,1051.716,875.643z
			"/>
		<path fill="#FFFFFF" d="M1076.628,875.736c-1.998,1.508-3.771,2.848-5.548,4.188c1.835,1.43,3.669,2.857,5.592,4.355
			c-1.683,1.522-4.596,1.498-6.267-1.124c-0.998-1.566-0.836-4.865,0.2-6.5C1072.158,874.206,1074.895,874.425,1076.628,875.736z"/>
		<path fill="#FFFFFF" d="M986.945,884.15c-2.077,1.526-4.916,1.603-6.631-1.068c-0.964-1.5-0.924-4.573,0.006-6.146
			c1.474-2.493,4.193-2.7,6.156-1.299c-1.857,1.696-3.61,3.295-5.362,4.895C982.938,881.662,984.759,882.793,986.945,884.15z"/>
		<path fill="#FFFFFF" d="M991.82,873.601c0.456,3.614,0.913,7.229,1.367,10.833C989.683,883.646,988.218,878.381,991.82,873.601z"
			/>
		<path fill="#FFFFFF" d="M1028.017,873.77c0.32,3.529,0.642,7.059,0.957,10.544c-3.083-0.263-4.716-5.332-2.438-10.428
			C1027.028,873.848,1027.521,873.809,1028.017,873.77z"/>
		<path fill="#FFFFFF" d="M1008.311,884.764c0-3.053,0-6.104,0-9.29c1.359,0,2.868,0,3.982,0c-1.053,2.994-2.155,6.127-3.258,9.261
			C1008.794,884.743,1008.553,884.754,1008.311,884.764z"/>
		<path fill="#FFFFFF" d="M1113.958,871.51c-1.528,4.705-3.057,9.409-4.585,14.114c-0.485-0.15-0.971-0.3-1.455-0.45
			c1.495-4.689,2.99-9.381,4.486-14.07C1112.922,871.238,1113.439,871.374,1113.958,871.51z"/>
		<path fill="#FFFFFF" d="M823.764,628.365c0,17.168,0.406,33.495-0.15,49.788c-0.339,9.903-9.666,18.59-19.589,19.762
			c-1.979,0.233-3.99,0.235-5.987,0.235c-43.159,0.013-86.323-0.369-129.477,0.198c-16.971,0.225-29.021-12.364-28.98-29.005
			c0.294-119.646,0.148-239.293,0.162-358.939c0.002-26.484,18.841-46.199,45.268-47.465c6.641-0.317,10.069-3.67,10.386-10.282
			c0.12-2.494,0.038-4.998,0.038-7.498c0.002-66.822,0.002-133.645,0.003-200.466c0-2.279,0-4.558,0-7.11
			c24.431,0,48.186,0,72.518,0c0.103,2.141,0.289,4.221,0.29,6.301c0.014,68.322,0.012,136.644,0.008,204.966
			c-0.001,11.131,2.726,13.942,13.717,14.103c20.249,0.293,39.087,16.159,41.274,36.54c1.375,12.811,0.257,25.89,0.257,39.406
			c-1.785,0.111-3.539,0.316-5.293,0.317c-30.328,0.013-60.656,0.005-90.984-0.009c-9.824-0.005-12.846,2.962-12.847,12.814
			c-0.012,87.484-0.016,174.971-0.011,262.454c0.001,11.056,2.869,13.886,13.901,13.886c29.495-0.001,58.99,0.002,88.485,0.004
			C818.882,628.365,821.013,628.365,823.764,628.365z"/>
		<path fill="#FFFFFF" d="M686.017,18.06c0-17.599,0-34.836,0-52.331c30.789,0,61.327,0,92.093,0c0,17.568,0,34.8,0,52.331
			C747.412,18.06,717.01,18.06,686.017,18.06z"/>
		<path d="M391.98,876.254c0.368-3.828,1.284-7.193,5.62-7.056c4.232,0.135,5.339,3.433,5.279,7.04
			c-0.055,3.442-1.33,6.475-5.279,6.547C393.269,882.863,392.414,879.48,391.98,876.254z"/>
		<path d="M284.105,874.795c0.506-3.723,1.586-6.803,5.83-6.801c4.151,0.002,4.982,2.994,5.263,6.801
			C291.391,874.795,287.866,874.795,284.105,874.795z"/>
		<path d="M334.82,884.112c-4.133-0.073-6.771-3.248-6.746-8.122c0.024-4.863,2.72-8.039,6.834-8.053
			c4.336-0.013,7.161,3.361,7.026,8.395C341.807,881.186,339.063,884.188,334.82,884.112z"/>
		<path d="M1202.068,877.984c-1.617,2.035-2.793,3.518-3.971,4.999c-1.021-1.735-2.78-3.444-2.844-5.214
			c-0.054-1.55,1.798-3.166,2.809-4.755C1199.253,874.493,1200.444,875.971,1202.068,877.984z"/>
		<path d="M1160.071,877.98c-1.625,2.045-2.804,3.526-3.98,5.01c-1.017-1.743-2.769-3.463-2.827-5.237
			c-0.051-1.548,1.809-3.159,2.823-4.743C1157.268,874.482,1158.448,875.955,1160.071,877.98z"/>
		<path d="M1148.303,878.038c-1.91,2.156-3.147,3.554-4.387,4.952c-0.958-1.796-2.548-3.55-2.671-5.401
			c-0.097-1.462,1.608-3.043,2.516-4.571C1145.093,874.49,1146.426,875.964,1148.303,878.038z"/>
		<path d="M1000.612,884.426c-1.188-2.258-2.444-3.586-2.35-4.809c0.076-0.965,1.817-1.799,2.819-2.69
			c0.924,1.152,2.406,2.228,2.585,3.485C1003.796,881.316,1002.184,882.469,1000.612,884.426z"/>
		<path d="M1083.615,875.46c1.564,2.142,3.126,3.343,3.042,4.415c-0.09,1.134-1.745,2.145-2.718,3.209
			c-0.953-0.911-2.61-1.771-2.684-2.748C1081.166,879.127,1082.391,877.82,1083.615,875.46z"/>
		<path d="M1036.827,875.457c1.468,2.218,2.826,3.385,2.849,4.577c0.021,0.996-1.524,2.021-2.378,3.035
			c-1.073-0.954-2.822-1.785-3.026-2.899C1034.076,879.111,1035.496,877.755,1036.827,875.457z"/>
	</g>
	<g>
		<path fill="#FFFFFF" d="M202.185,0c-17.046,0-33.968,0-51.025,0c0,8.254,0,16.386,0,24.69c17.171,0,34.016,0,51.025,0
			C202.185,16.418,202.185,8.289,202.185,0z"/>
		<path fill="#FFFFFF" d="M227.571,164.313L227.571,164.313c-0.004-2.303-0.096-4.584-0.381-6.849
			c-1.211-9.614-11.647-17.101-22.867-17.239c-6.091-0.075-7.601-1.402-7.6-6.654c0.001-32.233,0.004-64.465-0.004-96.699
			c0-0.982-0.104-1.963-0.162-2.973c-13.48,0-26.643,0-40.179,0c0,1.204,0,2.279,0,3.354c-0.001,31.526-0.001,63.051-0.001,94.576
			c0,1.18,0.044,2.362-0.022,3.538c-0.175,3.119-2.078,4.701-5.754,4.851c-14.642,0.596-25.082,9.898-25.083,22.393
			c-0.007,56.447,0.075,112.896-0.089,169.341c-0.022,7.85,6.653,13.79,16.057,13.686c23.91-0.27,47.827-0.086,71.739-0.096
			c1.106,0,2.22-0.001,3.316-0.111c5.497-0.551,10.666-4.65,10.854-9.321c0.203-5.091,0.174-10.189,0.129-15.404h0.043V164.313
			H227.571z"/>
	</g>
</g>
</svg>
