<?xml version="1.0" encoding="utf-8"?>
<!-- Generator: Adobe Illustrator 16.0.0, SVG Export Plug-In . SVG Version: 6.00 Build 0)  -->
<!DOCTYPE svg PUBLIC "-//W3C//DTD SVG 1.1//EN" "http://www.w3.org/Graphics/SVG/1.1/DTD/svg11.dtd">
<svg version="1.1" id="Layer_1" xmlns="http://www.w3.org/2000/svg" xmlns:xlink="http://www.w3.org/1999/xlink" x="0px" y="0px"
	 width="353px" height="326px" viewBox="0 -153.757 353 326" enable-background="new 0 -153.757 353 326" xml:space="preserve">
<g id="Layer_2">
</g>
<path fill-rule="evenodd" clip-rule="evenodd" fill="#FFFFFF" d="M28.744,107.479c0-61.049,0-122.097,0-183.145
	c0.863-0.327,0.676-1.218,0.845-1.823c1.139-4.014,3.243-7.448,6.018-10.511c2.947-3.257,6.639-5.474,10.483-7.471
	c1.287-0.467,2.574-0.937,3.86-1.407c2.89-0.492,5.782-0.985,8.672-1.475c0.806,0.001,1.611,0.005,2.416,0.009
	c2.406-0.009,4.814-0.016,7.222-0.024c0.807,0.008,1.612,0.015,2.417,0.024c2.407-0.009,4.814-0.016,7.224-0.024
	c0.805,0.008,1.61,0.015,2.415,0.024c2.409-0.009,4.814-0.016,7.223-0.024c0.805,0.008,1.61,0.015,2.415,0.024
	c2.41-0.009,4.817-0.016,7.224-0.024c0.805,0.008,1.612,0.015,2.415,0.024c2.41-0.009,4.818-0.016,7.224-0.024
	c0.806,0.008,1.611,0.015,2.418,0.024c2.406-0.009,4.814-0.016,7.222-0.024c0.807,0.008,1.612,0.015,2.417,0.024
	c2.409,0.004,4.817,0.011,7.226,0.016c0.805,0.135,1.61,0.269,2.418,0.403c1.922,0.361,3.844,0.722,5.768,1.083
	c0.354,0.52,0.901,0.486,1.433,0.499c1.769,0.804,3.539,1.606,5.31,2.411c0.359,0.505,0.88,0.756,1.456,0.921
	c1.105,0.811,2.211,1.62,3.317,2.429c0.666,0.62,1.335,1.24,2.003,1.861c0.965,1.134,1.931,2.271,2.896,3.406
	c0.456,0.691,0.911,1.38,1.368,2.071c0.66,1.402,1.319,2.804,1.979,4.206c-0.05,0.555,0.041,1.062,0.493,1.444
	c0.304,2.091,0.607,4.181,0.911,6.27c-0.119,1.061-0.22,2.116,0.442,3.063c0.297,1.729,1.304,3.015,2.585,4.129
	c0.264,0.518,0.657,0.884,1.227,1.046c1.525,1.496,3.312,2.491,5.43,2.853c0.507,0.606,1.221,0.521,1.895,0.559
	c2.216,0.719,4.478,0.752,6.764,0.478c0.816,0.266,1.636,0.294,2.46,0.027c2.395,0.221,4.787,0.247,7.182-0.027
	c0.816,0.266,1.637,0.294,2.459,0.027c2.23,0.222,4.462,0.255,6.688-0.027c0.983,0.262,1.964,0.292,2.95,0.027
	c2.23,0.222,4.461,0.255,6.692-0.027c0.98,0.262,1.963,0.292,2.945,0.027c2.395,0.221,4.787,0.247,7.18-0.027
	c0.817,0.266,1.638,0.294,2.46,0.027c2.396,0.221,4.788,0.247,7.183-0.027c0.816,0.266,1.635,0.296,2.458,0.027
	c2.057,0.234,4.116,0.469,6.174,0.703c0.825,0.188,1.651,0.377,2.477,0.565c1.586,0.559,3.175,1.117,4.76,1.673
	c0.203,0.436,0.641,0.376,1,0.474c1.545,0.943,3.09,1.888,4.635,2.831c0.552,0.445,1.106,0.888,1.658,1.332
	c1.144,1.124,2.282,2.247,3.425,3.374c0.443,0.526,0.886,1.054,1.329,1.58c0.946,1.496,1.894,2.993,2.842,4.488
	c0.04,0.468,0.146,0.909,0.58,1.188c0.622,1.776,1.246,3.55,1.87,5.325c0.028,0.672-0.066,1.364,0.355,1.96
	c0.063,0.871,0.262,1.759,0.161,2.612c-0.279,2.347,0.638,3.2,2.918,2.587c0.806,0.007,1.61,0.017,2.416,0.023
	c2.407-0.007,4.815-0.017,7.225-0.023c0.805,0.01,1.608,0.021,2.414,0.029c4.533,1.433,5.65,3.582,4.247,8.11
	c-1.896,6.135-3.78,12.272-5.67,18.409c-0.542,1.063-0.959,2.164-0.994,3.376c-1.405,3.444-2.469,6.996-3.361,10.602
	c-0.563,1.057-0.973,2.158-1.01,3.372c-1.408,3.445-2.477,6.997-3.354,10.61c-0.599,1.032-0.943,2.144-1.028,3.337
	c-1.367,3.467-2.484,7.015-3.351,10.641c-0.72,1.189-0.942,2.543-1.279,3.858c-1.039,3.376-2.08,6.753-3.121,10.129
	c-0.651,1.204-0.967,2.52-1.237,3.848c-1.076,3.39-2.153,6.779-3.231,10.169c-0.376,1.267-0.749,2.536-1.125,3.806
	c-1.103,3.417-2.201,6.832-3.302,10.252c-0.35,1.239-0.701,2.482-1.05,3.725c-1.353,3.459-2.384,7.021-3.373,10.595
	c-0.448,1.092-0.935,2.172-0.979,3.38c-1.218,3.547-2.435,7.093-3.652,10.639c-0.582,0.552-1.163,1.103-1.748,1.653
	c-2.456,1.167-5.111,0.366-7.646,0.768c-0.806-0.007-1.612-0.015-2.417-0.022c-2.406,0.008-4.814,0.016-7.224,0.022
	c-0.805-0.007-1.61-0.015-2.414-0.022c-2.409,0.008-4.815,0.016-7.225,0.022c-0.805-0.007-1.608-0.015-2.415-0.022
	c-2.408,0.008-4.815,0.016-7.223,0.022c-0.807-0.007-1.61-0.015-2.417-0.022c-2.406,0.008-4.816,0.016-7.224,0.022
	c-0.804-0.007-1.611-0.015-2.414-0.022c-2.408,0.008-4.817,0.016-7.226,0.022c-0.806-0.007-1.609-0.015-2.415-0.022
	c-2.407,0.008-4.815,0.016-7.224,0.022c-0.806-0.007-1.609-0.015-2.415-0.022c-2.407,0.008-4.814,0.016-7.224,0.022
	c-0.806-0.007-1.609-0.015-2.416-0.022c-2.407,0.008-4.815,0.016-7.223,0.022c-0.807-0.007-1.609-0.015-2.416-0.022
	c-2.407,0.008-4.816,0.016-7.225,0.022c-0.805-0.007-1.61-0.015-2.416-0.022c-2.406,0.008-4.814,0.016-7.223,0.022
	c-0.806-0.007-1.61-0.015-2.416-0.022c-2.407,0.008-4.814,0.016-7.223,0.022c-0.805-0.007-1.61-0.015-2.415-0.022
	c-2.409,0.008-4.814,0.016-7.224,0.022c-0.805-0.007-1.61-0.015-2.415-0.022c-2.408,0.008-4.816,0.016-7.224,0.022
	c-0.807-0.007-1.61-0.015-2.417-0.022c-2.406,0.008-4.815,0.016-7.223,0.022c-0.804-0.007-1.611-0.015-2.416-0.022
	c-2.407,0.008-4.814,0.016-7.223,0.022c-0.806-0.007-1.611-0.015-2.416-0.022c-2.407,0.008-4.814,0.016-7.224,0.022
	c-0.805-0.007-1.61-0.015-2.415-0.022c-2.409,0.008-4.814,0.016-7.224,0.022c-0.805-0.007-1.61-0.015-2.416-0.022
	c-2.407,0.008-4.817,0.016-7.224,0.022c-0.803-0.007-1.611-0.015-2.415-0.022c-2.407,0.008-4.816,0.016-7.226,0.022
	c-0.803-0.007-1.609-0.015-2.415-0.021C34.327,113.237,30.954,111.463,28.744,107.479z M232.132-28.451
	c2.386,0.024,4.77,0.03,7.155,0.083c0.961,0.022,1.489-0.161,1.307-1.327c-0.341-2.198-0.624-4.394-2.109-6.192
	c-0.019-0.346-0.079-0.664-0.486-0.764c-0.855-1.705-2.148-2.979-3.811-3.893c-0.535-0.68-1.26-1.057-2.064-1.309
	c-1.637-0.933-3.341-1.643-5.278-1.575c-0.752-0.514-1.595-0.422-2.433-0.353c-2.406,0.005-4.81,0.008-7.216,0.015
	c-0.806-0.008-1.615-0.014-2.422-0.02c-2.406,0.006-4.812,0.011-7.218,0.02c-0.807-0.008-1.613-0.014-2.422-0.02
	c-2.406,0.006-4.813,0.011-7.218,0.02c-0.807-0.008-1.613-0.014-2.42-0.02c-2.405,0.006-4.812,0.011-7.218,0.02
	c-0.809-0.008-1.615-0.014-2.422-0.02c-2.406,0.006-4.813,0.011-7.217,0.02c-0.809-0.008-1.616-0.014-2.424-0.02
	c-2.406,0.001-4.813,0.003-7.218,0.004c-0.784-0.072-1.571-0.143-2.357-0.214c-1.947-0.425-3.893-0.847-5.838-1.27
	c-0.52-0.494-1.2-0.563-1.854-0.706c-1.631-0.749-3.262-1.5-4.893-2.248c-0.358-0.506-0.871-0.777-1.45-0.943
	c-1.097-0.815-2.193-1.629-3.288-2.444c-0.67-0.637-1.338-1.272-2.007-1.91c-0.944-1.127-1.889-2.258-2.833-3.384
	c-0.19-0.568-0.449-1.088-0.963-1.441c-0.681-1.436-1.361-2.873-2.043-4.309c-0.279-0.813-0.562-1.626-0.841-2.44
	c-0.21-2.078-0.418-4.155-0.625-6.235c0.14-0.71,0.007-1.357-0.439-1.933c-0.258-2.029-1.396-3.527-2.897-4.804
	c-0.271-0.534-0.687-0.887-1.268-1.042c-1.534-1.48-3.355-2.394-5.445-2.785c-0.574-0.435-1.21-0.636-1.932-0.512
	c-2.2-0.855-4.479-0.528-6.742-0.436c-0.805-0.008-1.613-0.015-2.418-0.023c-2.407,0.008-4.815,0.015-7.221,0.023
	c-0.806-0.008-1.612-0.015-2.417-0.023c-2.408,0.008-4.815,0.015-7.221,0.023c-0.809-0.008-1.613-0.015-2.418-0.023
	c-2.409,0.008-4.815,0.015-7.224,0.023c-0.804-0.008-1.609-0.015-2.416-0.023c-2.407,0.008-4.814,0.015-7.223,0.023
	c-0.804-0.008-1.611-0.015-2.417-0.023c-2.406,0.008-4.813,0.015-7.221,0.023c-0.804-0.008-1.611-0.015-2.417-0.023
	c-2.407,0.008-4.814,0.015-7.222,0.023c-0.805-0.008-1.611-0.015-2.416-0.022c-3.236-0.275-6.324,0.206-9.19,1.807
	c-3.719,1.442-6.413,3.875-7.56,7.806c-0.553,2.383-0.447,4.787-0.222,7.193c-0.259,0.826-0.233,1.647,0.039,2.465
	c-0.305,2.391-0.26,4.783-0.039,7.174c-0.258,0.827-0.233,1.647,0.039,2.466c-0.305,2.39-0.26,4.782-0.039,7.174
	c-0.258,0.826-0.233,1.647,0.039,2.464c-0.305,2.391-0.26,4.782-0.039,7.176c-0.258,0.826-0.233,1.646,0.039,2.463
	c-0.305,2.391-0.26,4.783-0.039,7.176c-0.258,0.825-0.233,1.646,0.039,2.464c-0.305,2.39-0.26,4.782-0.039,7.174
	c-0.258,0.825-0.233,1.647,0.039,2.464c-0.305,2.39-0.26,4.783-0.039,7.175c-0.258,0.824-0.233,1.647,0.039,2.465
	c-0.305,2.388-0.262,4.779-0.039,7.172c-0.258,0.826-0.233,1.647,0.039,2.466c-0.305,2.39-0.262,4.781-0.039,7.173
	c-0.258,0.826-0.233,1.648,0.039,2.466c-0.305,2.391-0.262,4.782-0.039,7.173c-0.258,0.826-0.233,1.648,0.039,2.467
	c-0.305,2.39-0.262,4.78-0.039,7.173c-0.258,0.826-0.233,1.648,0.039,2.466c-0.307,2.39-0.255,4.779-0.043,7.17
	c-0.262,0.828-0.238,1.652,0.038,2.473c-0.297,2.389-0.253,4.776-0.038,7.167c-0.262,0.829-0.238,1.653,0.038,2.473
	c-0.413,3.957-0.05,7.924-0.166,11.884c-0.238,0.62-0.471,1.241,0.131,1.934c0.199-0.663,0.374-1.246,0.549-1.831
	c1.608-5.291,3.217-10.581,4.824-15.873c0.517-1.07,0.941-2.167,0.986-3.377c1.414-3.441,2.423-7.009,3.367-10.601
	c0.548-1.061,0.982-2.156,1-3.375c1.411-3.441,2.466-6.997,3.356-10.604c0.57-1.047,0.963-2.15,1.015-3.353
	c1.39-3.457,2.492-7.004,3.355-10.625c0.614-1.026,0.938-2.143,1.032-3.331c1.365-3.474,2.474-7.024,3.349-10.652
	c0.642-1.006,0.887-2.139,1.047-3.301c1.333-3.496,2.435-7.064,3.361-10.686c0.422-1.281,0.847-2.562,1.269-3.841
	c0.814-0.802,1.628-1.604,2.442-2.406c0.965-0.169,1.931-0.336,2.895-0.502c2.407-0.007,4.816-0.015,7.225-0.023
	c0.805,0.008,1.61,0.017,2.415,0.023c2.408-0.007,4.815-0.015,7.224-0.023c0.805,0.008,1.609,0.017,2.415,0.023
	c2.409-0.007,4.817-0.015,7.224-0.023c0.805,0.008,1.609,0.017,2.415,0.023c2.409-0.007,4.818-0.015,7.226-0.023
	c0.805,0.008,1.609,0.017,2.415,0.023c2.407-0.007,4.816-0.015,7.224-0.023c0.807,0.008,1.61,0.017,2.415,0.023
	c2.407-0.007,4.816-0.015,7.225-0.023c0.806,0.008,1.61,0.017,2.416,0.023c2.406-0.007,4.813-0.015,7.224-0.023
	c0.805,0.008,1.609,0.017,2.414,0.023c2.409-0.007,4.818-0.015,7.224-0.023c0.805,0.008,1.611,0.017,2.415,0.023
	c2.409-0.007,4.816-0.015,7.226-0.023c0.805,0.008,1.609,0.017,2.413,0.023c2.409-0.007,4.817-0.015,7.227-0.023
	c0.804,0.008,1.609,0.017,2.415,0.023c2.407-0.007,4.814-0.015,7.224-0.023c0.805,0.008,1.609,0.017,2.415,0.023
	c2.408-0.007,4.815-0.015,7.223-0.023c0.806,0.008,1.61,0.017,2.416,0.023c2.408-0.007,4.815-0.015,7.225-0.023
	c0.805,0.008,1.608,0.017,2.414,0.023c2.408-0.007,4.817-0.015,7.226-0.023c0.804,0.008,1.607,0.017,2.414,0.023
	c2.407-0.007,4.816-0.015,7.226-0.023c0.804,0.008,1.609,0.017,2.414,0.023c2.407-0.006,4.814-0.014,7.224-0.021
	C230.522-28.466,231.328-28.458,232.132-28.451z M317.218-27.651c3.735,0,7.126-0.003,10.525,0c3.317,0,4.672,1.257,4.681,4.5
	c0.023,9.737,0.02,19.475,0.005,29.21c-0.005,2.625-1.462,4.235-3.737,4.261c-2.283,0.03-3.808-1.561-3.817-4.171
	c-0.033-8.623-0.014-17.248-0.014-26.056c-2.494,0-4.898,0-7.505,0c-0.042,0.621-0.128,1.302-0.128,1.983
	c-0.01,34.593,0.061,69.187-0.113,103.778c-0.02,3.425-1.393,6.88-2.368,10.253c-0.452,1.566-1.367,3.027-2.222,4.444
	c-2.221,3.681-3.359,7.547-2.961,11.92c0.242,2.646-1.356,4.236-3.653,4.258c-2.403,0.025-4.048-1.61-3.807-4.37
	c0.365-4.192-0.565-7.952-2.805-11.469c-4.013-6.297-4.976-13.187-4.934-20.608c0.208-39.264,0.096-78.527,0.099-117.791
	c0-4.335,0.983-5.338,5.243-5.341c4.434,0,8.868-0.021,13.3,0.01c2.84,0.022,4.176,1.373,4.203,4.242
	C317.243-35.05,317.218-31.501,317.218-27.651z"/>
</svg>
