<?xml version="1.0" encoding="utf-8"?>
<!-- Generator: Adobe Illustrator 16.0.0, SVG Export Plug-In . SVG Version: 6.00 Build 0)  -->
<!DOCTYPE svg PUBLIC "-//W3C//DTD SVG 1.1//EN" "http://www.w3.org/Graphics/SVG/1.1/DTD/svg11.dtd">
<svg version="1.1" xmlns="http://www.w3.org/2000/svg" xmlns:xlink="http://www.w3.org/1999/xlink" x="0px" y="0px" width="353px"
	 height="326px" viewBox="0 0 353 326" enable-background="new 0 0 353 326" xml:space="preserve">
<g id="Layer_2_1_" display="none">
	<rect display="inline" fill-rule="evenodd" clip-rule="evenodd" fill="#231F20" width="353" height="326"/>
</g>
<g id="Layer_1">
	<g id="Layer_2">
	</g>
	<g>
		<path fill-rule="evenodd" clip-rule="evenodd" fill="#010101" d="M1125.066,579.268c12.77,0.029,28.669,2.369,43.78,8.705
			c28.288,11.861,46.095,32.898,53.523,62.529c5.233,20.877,5.052,41.893-1.13,62.557c-9.135,30.533-29.22,50.768-59.265,61.124
			c-15.552,5.361-31.655,6.891-47.999,6.093c-13.904-0.679-27.455-3.224-40.322-8.701c-28.14-11.979-45.836-33.023-53.159-62.569
			c-5.381-21.708-5.025-43.509,1.977-64.835c9.794-29.834,30.212-49.246,59.868-59.076
			C1095.05,580.881,1108.18,579.256,1125.066,579.268z M1119.173,754.439c11.175,0,19.783-1.048,27.641-3.281
			c22.825-6.488,38.411-20.79,45.622-43.489c5.866-18.467,5.767-37.208,0.055-55.707c-5.844-18.926-17.967-32.507-36.298-40.299
			c-8.605-3.658-17.656-5.448-26.974-6.103c-11.264-0.789-22.387-0.024-33.243,3.102c-23.067,6.643-38.687,21.256-45.746,44.301
			c-5.649,18.439-5.472,37.096,0.458,55.46c6.267,19.405,19.086,32.914,38.142,40.37
			C1099.316,752.896,1110.273,754.349,1119.173,754.439z"/>
		<path fill-rule="evenodd" clip-rule="evenodd" fill="#010101" d="M763.435,584.158c0.483,1.113,0.411,2.168,0.456,3.191
			c0.31,7.03,0.564,14.063,0.896,21.092c0.054,1.121-0.173,1.683-1.402,1.533c-0.552-0.068-1.118-0.012-1.678-0.012
			c-40.638,0-81.274-0.004-121.912,0.006c-3.41,0.001-2.858-0.396-2.862,2.953c-0.02,15.919-0.009,31.838-0.009,47.757
			c0,0.24,0,0.479,0,0.72c0.003,2.526-0.192,2.319,2.335,2.319c33.117,0.001,66.235,0.001,99.353,0.001c0.48,0,0.96-0.002,1.44,0
			c2.25,0.012,2.055-0.21,2.056,2.059c0.003,7.12,0.008,14.239-0.002,21.358c-0.004,2.535,0.265,2.247-2.354,2.248
			c-32.558,0.005-65.115,0.003-97.674,0.003c-0.959,0-1.919,0.007-2.879-0.001c-2.604-0.021-2.272,0.018-2.272,2.394
			c-0.003,18.558-0.002,37.117-0.001,55.676c0,0.479,0.01,0.96,0.006,1.439c-0.005,0.603,0.328,0.851,0.889,0.855
			c0.721,0.008,1.439,0.008,2.16,0.008c42.236,0,84.474-0.003,126.711,0.007c2.986,0.001,2.771-0.478,2.626,2.623
			c-0.323,6.869-0.69,13.736-1.038,20.604c-0.13,2.566-0.126,2.57-2.703,2.57c-43.437,0.001-86.874,0.001-130.311,0.001
			c-8.159,0-16.318,0.004-24.479-0.003c-1.991-0.002-1.992-0.02-2.027-1.907c-0.008-0.399-0.002-0.8-0.002-1.199
			c0-61.756-0.002-123.512,0.006-185.268c0-3.625-0.351-3.019,3.061-3.019c49.676-0.015,99.353-0.01,149.029-0.01
			C761.725,584.158,762.599,584.158,763.435,584.158z"/>
		<path fill-rule="evenodd" clip-rule="evenodd" fill="#020202" d="M798.302,775.563c0.097-1.023,0.661-1.405,1.056-1.878
			c26.424-31.701,52.856-63.396,79.287-95.091c0.103-0.123,0.206-0.245,0.307-0.369c1.6-1.983,1.558-1.41,0.017-3.272
			c-8.059-9.733-16.149-19.44-24.226-29.158c-16.563-19.93-33.124-39.859-49.677-59.797c-0.293-0.353-0.749-0.631-0.746-1.24
			c0.505-0.46,1.159-0.289,1.75-0.297c10.075-0.11,20.151-0.18,30.226-0.33c1.4-0.021,2.324,0.354,3.237,1.475
			c24.189,29.707,48.419,59.379,72.643,89.058c0.253,0.31,0.47,0.656,0.757,0.929c0.688,0.655,0.539,1.235-0.073,1.832
			c-0.228,0.222-0.408,0.491-0.611,0.738c-26.082,31.774-52.174,63.541-78.215,95.35c-1.229,1.5-2.444,2.126-4.415,2.103
			c-9.599-0.112-19.198-0.05-28.798-0.05C800.03,775.564,799.241,775.563,798.302,775.563z"/>
		<path fill-rule="evenodd" clip-rule="evenodd" fill="#020202" d="M932.033,693.505c22.547,27.391,44.87,54.51,67.547,82.059
			c-1.138,0-1.739,0.001-2.341,0.001c-10.313,0-20.626-0.02-30.938,0.025c-1.23,0.005-2.04-0.331-2.837-1.313
			c-16.066-19.797-32.172-39.563-48.266-59.336c-0.247-0.304-0.452-0.641-0.741-1.053
			C920.26,707.159,926.043,700.452,932.033,693.505z"/>
		<path fill-rule="evenodd" clip-rule="evenodd" fill="#020202" d="M993.707,584.64c-20.466,24.737-40.931,49.476-61.635,74.502
			c-5.81-6.695-11.511-13.318-17.266-19.991c4.438-5.418,8.79-10.736,13.146-16.051c10.09-12.309,20.199-24.604,30.248-36.945
			c1.143-1.403,2.288-2.068,4.189-2.049c10.316,0.108,20.635,0.052,30.952,0.052C993.464,584.318,993.585,584.479,993.707,584.64z"
			/>
		<path fill-rule="evenodd" clip-rule="evenodd" fill="#17E5EB" d="M157.021,794.912c-11.795-0.007-21.228-9.397-21.23-21.137
			c-0.003-11.651,9.554-21.146,21.28-21.142c11.697,0.005,21.271,9.551,21.251,21.19
			C178.302,785.525,168.813,794.918,157.021,794.912z"/>
		<path fill-rule="evenodd" clip-rule="evenodd" fill="#1BD5F1" d="M318.427,698.354c-11.708,0.012-21.258-9.466-21.308-21.149
			c-0.05-11.635,9.506-21.115,21.288-21.122c11.805-0.007,21.284,9.394,21.276,21.1
			C339.676,688.869,330.165,698.343,318.427,698.354z"/>
		<path fill-rule="evenodd" clip-rule="evenodd" fill="#12F8E4" d="M157.045,601.474c-10.555,0.348-21.188-8.34-21.243-21.079
			c-0.052-11.666,9.529-21.17,21.241-21.165c11.711,0.005,21.335,9.505,21.258,21.165
			C178.215,593.272,167.49,601.834,157.045,601.474z"/>
		<path fill-rule="evenodd" clip-rule="evenodd" fill="#18E0ED" d="M318.466,601.473c-10.258,0.403-21.264-7.932-21.292-21.025
			c-0.026-12.463,9.998-21.168,21.19-21.212c11.714-0.046,21.378,9.485,21.303,21.107
			C339.581,593.572,328.587,601.816,318.466,601.473z"/>
		<path fill-rule="evenodd" clip-rule="evenodd" fill="#1ECBF5" d="M318.231,794.911c-10.12,0.175-21.148-7.927-21.048-21.295
			c0.096-12.722,10.527-21.073,21.417-20.988c11.669,0.092,21.168,9.692,21.083,21.356
			C339.6,785.663,330.033,794.994,318.231,794.911z"/>
		<path fill-rule="evenodd" clip-rule="evenodd" fill="#19DDEE" d="M216.719,725.712c-0.355-11.613,9.741-21.204,21.122-21.21
			c11.197-0.006,21.305,9.125,21.285,21.113c-0.02,11.73-9.433,21.161-21.188,21.199
			C225.585,746.854,216.375,736.517,216.719,725.712z"/>
		<path fill-rule="evenodd" clip-rule="evenodd" fill="#20C3F8" d="M420.576,725.369c0.371,11.027-8.939,21.005-19.994,21.428
			c-12.09,0.463-22.01-8.523-22.498-20.116c-0.498-11.809,8.708-21.484,19.984-22.138
			C409.921,703.857,420.392,713.093,420.576,725.369z"/>
		<path fill-rule="evenodd" clip-rule="evenodd" fill="#1DCEF4" d="M420.595,629.178c0.023,11.614-9.591,21.152-21.308,21.142
			c-11.708-0.012-21.191-9.506-21.197-21.222c-0.007-11.631,9.372-20.829,21.034-21.104
			C409.032,607.759,420.454,615.633,420.595,629.178z"/>
		<path fill-rule="evenodd" clip-rule="evenodd" fill="#1FC6F7" d="M479.297,601.471c-10.894,0.307-21.188-9.146-21.04-21.266
			c0.143-11.643,9.638-21.09,21.417-20.961c12.711,0.139,21.13,10.764,21.048,21.337
			C500.633,592.112,490.654,601.94,479.297,601.471z"/>
		<path fill-rule="evenodd" clip-rule="evenodd" fill="#16E8EA" d="M216.719,629.157c-0.294-11.835,10.031-21.178,21.154-21.187
			c10.745-0.01,21.263,8.771,21.24,21.15c-0.022,11.713-9.493,21.262-21.209,21.18C224.89,650.21,216.378,639.5,216.719,629.157z"/>
		<path fill-rule="evenodd" clip-rule="evenodd" fill="#25B2FF" d="M500.642,773.632c0.452,11.502-9.543,21.357-20.992,21.305
			c-11.841-0.055-21.331-9.265-21.368-20.974c-0.037-11.784,9.311-21.265,21.041-21.326
			C491.83,752.571,500.936,762.939,500.642,773.632z"/>
		<path fill-rule="evenodd" clip-rule="evenodd" fill="#FEFEFE" d="M1119.173,754.439c-8.899-0.091-19.856-1.543-30.344-5.646
			c-19.056-7.456-31.875-20.965-38.142-40.37c-5.93-18.364-6.107-37.021-0.458-55.46c7.06-23.045,22.679-37.658,45.746-44.301
			c10.856-3.126,21.979-3.891,33.243-3.102c9.317,0.654,18.368,2.444,26.974,6.103c18.331,7.792,30.454,21.373,36.298,40.299
			c5.712,18.499,5.812,37.24-0.055,55.707c-7.211,22.699-22.797,37.001-45.622,43.489
			C1138.956,753.392,1130.348,754.439,1119.173,754.439z"/>
	</g>
	<g>
		<g>
			<path fill-rule="evenodd" clip-rule="evenodd" fill="#FEFEFE" d="M166.796,300.667c-7.158-0.003-12.88-5.699-12.881-12.821
				c-0.003-7.068,5.796-12.829,12.91-12.825c7.097,0.002,12.906,5.793,12.893,12.854
				C179.705,294.974,173.951,300.672,166.796,300.667z"/>
			<path fill-rule="evenodd" clip-rule="evenodd" fill="#FEFEFE" d="M264.721,242.085c-7.104,0.01-12.898-5.741-12.927-12.828
				c-0.032-7.063,5.764-12.813,12.913-12.818c7.16,0,12.912,5.703,12.909,12.801C277.612,236.33,271.841,242.08,264.721,242.085z"/>
			<path fill-rule="evenodd" clip-rule="evenodd" fill="#FEFEFE" d="M166.809,183.31c-6.402,0.214-12.854-5.059-12.886-12.787
				c-0.032-7.078,5.78-12.845,12.886-12.842c7.103,0.002,12.943,5.766,12.896,12.842
				C179.653,178.335,173.146,183.528,166.809,183.31z"/>
			<path fill-rule="evenodd" clip-rule="evenodd" fill="#FEFEFE" d="M264.745,183.31c-6.226,0.243-12.904-4.812-12.92-12.756
				c-0.014-7.563,6.067-12.843,12.856-12.867c7.107-0.03,12.969,5.75,12.925,12.804C277.554,178.517,270.883,183.516,264.745,183.31
				z"/>
			<path fill-rule="evenodd" clip-rule="evenodd" fill="#FEFEFE" d="M264.6,300.667c-6.139,0.107-12.83-4.81-12.766-12.917
				c0.054-7.72,6.385-12.788,12.992-12.735c7.077,0.056,12.844,5.88,12.79,12.956C277.564,295.059,271.763,300.718,264.6,300.667z"
				/>
			<path fill-rule="evenodd" clip-rule="evenodd" fill="#FEFEFE" d="M203.015,258.685c-0.217-7.044,5.909-12.864,12.813-12.867
				c6.793-0.002,12.927,5.537,12.912,12.807c-0.011,7.12-5.723,12.839-12.854,12.862
				C208.391,271.514,202.805,265.241,203.015,258.685z"/>
			<path fill-rule="evenodd" clip-rule="evenodd" fill="#FEFEFE" d="M203.015,200.107c-0.18-7.185,6.085-12.851,12.833-12.855
				c6.52-0.006,12.9,5.319,12.887,12.831c-0.013,7.104-5.761,12.899-12.867,12.852C207.971,212.877,202.808,206.379,203.015,200.107
				z"/>
		</g>
		<g>
			<path fill-rule="evenodd" clip-rule="evenodd" fill="#FEFEFE" d="M227.148,81.106c0.986,0,1.769,0,2.554,0
				c10.181,0,20.363-0.016,30.545,0.006c8.303,0.019,13.623,4.533,14.802,12.774c2.278,15.931,4.438,31.879,6.653,47.82
				c3.238,23.301,6.479,46.604,9.722,69.906c3.254,23.374,6.51,46.745,9.764,70.12c0.456,3.289,0.707,6.619,1.398,9.857
				c1.16,5.446-2.125,11.555-8.977,13.675c-1.697,0.524-3.545,0.781-5.323,0.781c-70.258,0.039-140.513,0.039-210.771,0.026
				c-7.61-0.002-13.652-4.468-14.286-10.881c-0.264-2.667,0.331-5.447,0.706-8.154c5.551-39.957,11.137-79.912,16.701-119.868
				c3.393-24.375,6.76-48.752,10.14-73.128c1.132-8.159,6.477-12.9,14.682-12.928c10.181-0.031,20.362-0.008,30.543-0.01
				c0.854,0,1.707,0,2.869,0c0-1.029-0.008-1.867,0.001-2.706c0.086-8.662-0.332-17.363,0.367-25.975
				c1.57-19.377,16.307-35.26,35.437-38.954c19.047-3.679,38.412,5.774,47.392,23.124c3.28,6.342,4.879,13.096,4.925,20.212
				c0.048,7.654,0.016,15.308,0.023,22.961C227.014,80.118,227.084,80.469,227.148,81.106z M216.83,91.397
				c-22.75,0-45.167,0-67.78,0c0,0.844,0,1.551,0,2.259c0,8.303-0.035,16.608,0.042,24.909c0.01,1.068,0.397,2.238,0.933,3.178
				c1.772,3.124,1.254,6.977-1.402,9.269c-2.667,2.304-6.65,2.297-9.335-0.017c-2.677-2.305-3.179-6.097-1.382-9.257
				c0.535-0.941,0.917-2.113,0.926-3.184c0.075-8.303,0.045-16.606,0.037-24.908c-0.001-0.76-0.07-1.517-0.113-2.387
				c-1.04,0-1.828,0-2.614,0c-9.893-0.002-19.784-0.002-29.676-0.002c-4.405,0-5.216,0.764-5.82,5.124
				c-4.236,30.595-8.482,61.186-12.739,91.779c-4.827,34.664-9.669,69.328-14.5,103.992c-0.339,2.427,0.482,3.464,2.939,3.709
				c0.717,0.071,1.443,0.037,2.165,0.037c69.676,0.002,139.351,0.002,209.026-0.003c0.864,0,1.755,0.052,2.588-0.129
				c1.754-0.384,2.701-1.282,2.406-3.363c-3.104-21.933-6.14-43.878-9.196-65.822c-3.854-27.662-7.712-55.321-11.561-82.982
				c-2.21-15.868-4.394-31.738-6.616-47.604c-0.561-4.004-1.459-4.736-5.491-4.739c-10.037-0.001-20.072,0-30.109,0
				c-0.771,0-1.544,0-2.553,0c0,1.026,0,1.798,0,2.572c0,8.16-0.042,16.319,0.046,24.478c0.012,1.206,0.43,2.516,1.01,3.59
				c1.614,2.991,1.157,6.674-1.307,8.94c-2.499,2.297-6.225,2.541-8.98,0.583c-2.752-1.952-4.06-5.733-2.313-8.612
				c1.446-2.385,1.362-4.749,1.367-7.236c0.013-5.775,0.004-11.553,0.004-17.329C216.83,96.018,216.83,93.791,216.83,91.397z
				 M149.158,80.939c22.676,0,45.08,0,67.675,0c0-0.802,0-1.437,0-2.073c-0.003-7.504,0.05-15.009-0.015-22.513
				c-0.165-18.46-15.384-33.51-33.835-33.524c-18.583-0.012-33.791,15.047-33.921,33.634c-0.052,7.505-0.015,15.009-0.008,22.514
				C149.054,79.611,149.118,80.243,149.158,80.939z"/>
		</g>
	</g>
</g>
</svg>
