<?xml version="1.0" encoding="utf-8"?>
<!-- Generator: Adobe Illustrator 16.0.0, SVG Export Plug-In . SVG Version: 6.00 Build 0)  -->
<!DOCTYPE svg PUBLIC "-//W3C//DTD SVG 1.1//EN" "http://www.w3.org/Graphics/SVG/1.1/DTD/svg11.dtd">
<svg version="1.1" id="Layer_1" xmlns="http://www.w3.org/2000/svg" xmlns:xlink="http://www.w3.org/1999/xlink" x="0px" y="0px"
	 width="353px" height="326px" viewBox="0 0 353 326" enable-background="new 0 0 353 326" xml:space="preserve">
<g id="Layer_2">
</g>
<path fill-rule="evenodd" clip-rule="evenodd" fill="#FFFFFF" d="M275.141,102.996c-12.418-5.272-24.275-9.741-36.872-11.812
	c-7.299-1.2-14.59-2.284-21.966-0.435c-13.83,3.466-18.31,15.163-10.148,26.851c5.157,7.386,12.104,13.091,18.489,19.319
	c13.15,12.832,26.604,25.415,36.93,40.773c25.14,37.393,13.57,82.023-26.521,102.618c-3.964,2.038-7.98,4.022-12.115,5.683
	c-2.852,1.145-3.771,2.875-3.777,5.857c-0.026,13.048-0.379,26.09-0.339,39.138c0.013,3.678-0.844,5.123-4.856,5.085
	c-20.263-0.188-40.528-0.175-60.791-0.01c-3.878,0.032-4.99-1.128-4.832-5.004c0.42-10.29,0.104-20.615,0.683-30.894
	c0.291-5.19-1.684-6.808-6.471-7.335c-13.851-1.53-27.347-4.817-40.694-8.817c-3.566-1.066-4.75-2.712-4.865-6.466
	c-0.598-19.387-1.404-38.77-2.467-58.133c-0.236-4.271,1.082-3.687,3.859-2.452c16.24,7.217,33.008,12.603,50.787,14.435
	c9.125,0.936,17.73,0.083,25.453-5.672c7.986-5.953,8.848-17.309,1.898-24.686c-16.363-17.363-34.227-33.214-50.502-50.671
	c-11.109-11.919-19.814-24.934-23.014-41.206c-5.785-29.447,10.248-59.205,38.452-71.197c6.021-2.557,12.241-4.518,18.574-6.077
	c2.921-0.719,4.418-2.041,4.39-5.214c-0.104-10.461,0.148-20.931-0.157-31.385c-0.132-4.491,1.172-5.847,5.767-5.788
	c19.918,0.254,39.84,0.236,59.758,0.01c4.418-0.048,5.488,1.319,5.244,5.565c-0.59,10.277-0.535,20.591-1.062,30.869
	c-0.193,3.786,1.171,5.015,4.77,5.466c9.708,1.216,19.296,3.176,28.811,5.482c2.347,0.569,4.166,1.176,4.313,4.113
	C272.895,61.386,274.008,81.76,275.141,102.996z"/>
</svg>
