<?xml version="1.0" encoding="utf-8"?>
<!-- Generator: Adobe Illustrator 16.0.0, SVG Export Plug-In . SVG Version: 6.00 Build 0)  -->
<!DOCTYPE svg PUBLIC "-//W3C//DTD SVG 1.1//EN" "http://www.w3.org/Graphics/SVG/1.1/DTD/svg11.dtd">
<svg version="1.1" id="Layer_1" xmlns="http://www.w3.org/2000/svg" xmlns:xlink="http://www.w3.org/1999/xlink" x="0px" y="0px"
	 width="259.414px" height="172.243px" viewBox="0 0 259.414 172.243" enable-background="new 0 0 259.414 172.243"
	 xml:space="preserve">
<g id="Layer_2">
</g>
<g>
	<g>
		<path fill-rule="evenodd" clip-rule="evenodd" d="M132.584,172.274c-44.195,0-88.39,0-132.584,0C0,114.85,0,57.425,0,0
			c43.746,0,87.491,0,132.584,0C132.584,58.349,132.584,115.312,132.584,172.274z"/>
		<path fill-rule="evenodd" clip-rule="evenodd" d="M211.922,172.242c-24.554,0-49.105,0-73.658,0c0-57.283,0-114.569,0-172.242
			c25.097,0,47.406,0,73.354,0c0,32.975,0,64.729,0,96.484C211.721,121.737,211.822,146.991,211.922,172.242z"/>
		<path fill-rule="evenodd" clip-rule="evenodd" d="M213.988,93.227c15.521,26.339,31.039,52.678,46.562,79.015
			c-15.416,0-30.832,0-46.249,0C214.195,145.905,214.092,119.566,213.988,93.227z"/>
		<path fill-rule="evenodd" clip-rule="evenodd" d="M213.988,0.033v91.439c24.288,0,43.981-20.469,43.981-45.719
			C257.969,20.501,238.276,0.033,213.988,0.033z"/>
	</g>
	<g>
		<rect x="5.566" y="4.965" fill="none" stroke="#FFFFFF" stroke-miterlimit="10" width="122.509" height="111.182"/>
		<rect x="19.797" y="19.795" fill="none" stroke="#FFFFFF" stroke-miterlimit="10" width="92.192" height="75.023"/>
		<rect x="110.131" y="104.013" fill="#FFFFFF" width="7.425" height="4.045"/>
		<rect x="110.905" y="131.594" fill="#FFFFFF" width="7.425" height="4.047"/>
		<rect x="17.322" y="131.594" fill="#FFFFFF" width="34.65" height="4.047"/>
		<rect x="5.566" y="116.147" fill="none" stroke="#FFFFFF" stroke-miterlimit="10" width="122.509" height="50.752"/>
	</g>
</g>
</svg>
